<svg xmlns="http://www.w3.org/2000/svg" xmlns:xlink="http://www.w3.org/1999/xlink" preserveAspectRatio="xMidYMid" width="102" height="102" viewBox="0 0 102 102">
  <defs>
    <style>

      .cls-3 {
        stroke: #ffffff;
        stroke-linecap: round;
        stroke-width: 2px;
        fill: none;
      }

      .cls-4 {
        fill: #ffffff;
      }

      .cls-5 {
        stroke: #ffffff;
        stroke-width: 2px;
        fill: none;
      }
    </style>
  </defs>
  <g id="idle">
    <circle id="circle-1" class="cls-3" cx="51" cy="51" r="50"/>
    <path d="M64.999,64.999 C64.999,64.999 74.999,64.999 74.999,64.999 C74.999,64.999 74.999,24.999 74.999,24.999 C74.999,24.999 34.999,24.999 34.999,24.999 C34.999,24.999 34.999,34.999 34.999,34.999 C34.999,34.999 37.000,35.000 37.000,35.000 C37.000,35.000 37.000,27.000 37.000,27.000 C37.000,27.000 73.000,27.000 73.000,27.000 C73.000,27.000 73.000,63.000 73.000,63.000 C73.000,63.000 65.000,63.000 65.000,63.000 C65.000,63.000 64.999,64.999 64.999,64.999 Z" id="path-1" class="cls-4" fill-rule="evenodd"/>
    <rect id="rect-1" class="cls-5" x="26" y="36" width="40" height="40"/>
    <path d="M48.228,54.724 C48.228,54.724 55.259,61.755 55.259,61.755 C56.227,62.723 56.227,64.292 55.259,65.260 C54.292,66.228 52.723,66.228 51.755,65.260 C51.755,65.260 44.724,58.228 44.724,58.228 C44.724,58.228 38.185,64.767 38.185,64.767 C37.232,65.720 35.684,65.718 34.728,64.763 C33.772,63.807 33.770,62.259 34.723,61.306 C34.723,61.306 41.262,54.767 41.262,54.767 C41.262,54.767 34.923,48.427 34.923,48.427 C33.955,47.460 33.955,45.891 34.923,44.923 C35.890,43.955 37.460,43.955 38.427,44.923 C38.427,44.923 44.767,51.262 44.767,51.262 C44.767,51.262 51.306,44.724 51.306,44.724 C52.259,43.770 53.807,43.772 54.763,44.728 C55.719,45.684 55.721,47.232 54.767,48.185 C54.767,48.185 48.228,54.724 48.228,54.724 Z" id="path-2" class="cls-4" fill-rule="evenodd"/>
  </g>
</svg>
