<svg xmlns="http://www.w3.org/2000/svg" xmlns:xlink="http://www.w3.org/1999/xlink" preserveAspectRatio="xMidYMid" width="62" height="62" viewBox="0 0 62 62">
  <defs>
    <style>

      .cls-3 {
        stroke: #ca3636;
        stroke-width: 2px;
        fill: none;
      }

      .cls-4 {
        fill: #ca3636;
      }
    </style>
  </defs>
  <g id="selected">
    <rect id="rect-1" class="cls-3" x="1" y="1" width="60" height="60"/>
    <path d="M33.540,30.000 C33.540,30.000 48.674,45.134 48.674,45.134 C49.682,46.142 49.707,47.752 48.730,48.729 C47.752,49.707 46.142,49.682 45.134,48.674 C45.134,48.674 30.000,33.540 30.000,33.540 C30.000,33.540 14.865,48.674 14.865,48.674 C13.857,49.682 12.248,49.707 11.270,48.729 C10.293,47.752 10.318,46.142 11.326,45.134 C11.326,45.134 26.460,30.000 26.460,30.000 C26.460,30.000 11.326,14.865 11.326,14.865 C10.318,13.857 10.293,12.248 11.270,11.270 C12.248,10.293 13.857,10.317 14.865,11.326 C14.865,11.326 30.000,26.460 30.000,26.460 C30.000,26.460 45.134,11.325 45.134,11.325 C46.142,10.317 47.752,10.293 48.730,11.270 C49.707,12.248 49.682,13.857 48.674,14.865 C48.674,14.865 33.540,30.000 33.540,30.000 Z" id="path-1" class="cls-4" fill-rule="evenodd"/>
  </g>
</svg>
