<svg xmlns="http://www.w3.org/2000/svg" xmlns:xlink="http://www.w3.org/1999/xlink" preserveAspectRatio="xMidYMid" width="103" height="103" viewBox="0 0 103 103">
  <defs>
    <style>

      .cls-3 {
        fill: #00688f;
        stroke: #00688f;
        stroke-width: 3px;
      }

      .cls-4 {
        fill: #ffffff;
      }
    </style>
  </defs>
  <g id="pressed">
    <circle id="circle-1" class="cls-3" cx="51" cy="51" r="50"/>
    <path d="M86.999,49.766 C86.999,48.804 86.381,48.205 85.511,47.767 C85.459,47.735 28.658,24.109 28.658,24.109 C28.507,24.044 28.348,24.014 28.187,24.014 C27.962,24.014 27.740,24.073 27.545,24.193 C27.214,24.397 27.015,24.750 27.015,25.122 C27.015,25.122 27.015,45.278 27.015,45.278 C27.015,45.876 27.511,46.363 28.140,46.386 C28.140,46.386 83.741,49.860 83.741,49.860 C83.741,49.860 28.218,53.794 28.218,53.794 C27.589,53.819 27.093,54.306 27.093,54.904 C27.093,54.904 27.093,74.905 27.093,74.905 C27.093,75.276 27.291,75.629 27.623,75.835 C27.817,75.953 28.041,76.015 28.265,76.015 C28.424,76.015 28.584,75.984 28.736,75.918 C28.736,75.918 84.870,52.083 84.870,52.083 C85.999,51.674 86.999,50.933 86.999,49.766 Z" id="path-1" class="cls-4" fill-rule="evenodd"/>
  </g>
</svg>
