<svg xmlns="http://www.w3.org/2000/svg" xmlns:xlink="http://www.w3.org/1999/xlink" preserveAspectRatio="xMidYMid" width="100" height="100" viewBox="0 0 100 100">
  <defs>
    <style>

      .cls-3 {
        fill: #00688f;
      }

      .cls-5 {
        fill: #ffffff;
      }
    </style>
  </defs>
  <g id="preesed">
    <circle id="circle-1" class="cls-3" cx="50" cy="50" r="50"/>
    <g id="pecil">
      <path d="M41.954,67.046 C41.954,67.046 33.383,58.475 33.383,58.475 C33.383,58.475 60.000,31.000 60.000,31.000 C60.000,31.000 69.000,40.000 69.000,40.000 C69.000,40.000 41.954,67.046 41.954,67.046 ZM40.540,68.460 C40.540,68.460 38.000,71.000 38.000,71.000 C38.000,71.000 26.000,74.000 26.000,74.000 C26.000,74.000 29.000,63.000 29.000,63.000 C29.000,63.000 31.992,59.911 31.992,59.911 C31.992,59.911 40.540,68.460 40.540,68.460 Z" id="path-1" class="cls-5" fill-rule="evenodd"/>
      <path d="M68.990,25.729 C68.990,25.729 74.243,30.982 74.243,30.982 C75.210,31.949 75.210,33.517 74.243,34.484 C74.243,34.484 70.741,37.987 70.741,37.987 C70.741,37.987 61.986,29.231 61.986,29.231 C61.986,29.231 65.488,25.729 65.488,25.729 C66.455,24.762 68.023,24.762 68.990,25.729 Z" id="path-2" class="cls-5" fill-rule="evenodd"/>
    </g>
  </g>
</svg>
