<svg xmlns="http://www.w3.org/2000/svg" xmlns:xlink="http://www.w3.org/1999/xlink" preserveAspectRatio="xMidYMid" width="102" height="102" viewBox="0 0 102 102">
  <defs>
    <style>

      .cls-3 {
        stroke: #ffffff;
        stroke-linecap: round;
        stroke-width: 2px;
        fill: none;
      }

      .cls-5 {
        stroke: #ffffff;
        stroke-width: 2px;
        fill: none;
      }

      .cls-6 {
        fill: #ffffff;
      }
    </style>
  </defs>
  <g id="idle">
    <circle id="circle-1" class="cls-3" cx="51" cy="51" r="50"/>
    <g id="trash">
      <path d="M36.000,29.000 C36.000,29.000 68.000,29.000 68.000,29.000 C69.105,29.000 70.000,29.895 70.000,31.000 C70.000,31.000 70.000,74.000 70.000,74.000 C70.000,75.104 69.105,76.000 68.000,76.000 C68.000,76.000 36.000,76.000 36.000,76.000 C34.895,76.000 34.000,75.104 34.000,74.000 C34.000,74.000 34.000,31.000 34.000,31.000 C34.000,29.895 34.895,29.000 36.000,29.000 Z" id="path-1" class="cls-5" fill-rule="evenodd"/>
      <path d="M61.500,67.000 C61.500,67.000 60.500,67.000 60.500,67.000 C60.224,67.000 60.000,66.776 60.000,66.500 C60.000,66.500 60.000,35.500 60.000,35.500 C60.000,35.224 60.224,35.000 60.500,35.000 C60.500,35.000 61.500,35.000 61.500,35.000 C61.776,35.000 62.000,35.224 62.000,35.500 C62.000,35.500 62.000,66.500 62.000,66.500 C62.000,66.776 61.776,67.000 61.500,67.000 ZM51.500,67.000 C51.500,67.000 50.500,67.000 50.500,67.000 C50.224,67.000 50.000,66.776 50.000,66.500 C50.000,66.500 50.000,35.500 50.000,35.500 C50.000,35.224 50.224,35.000 50.500,35.000 C50.500,35.000 51.500,35.000 51.500,35.000 C51.776,35.000 52.000,35.224 52.000,35.500 C52.000,35.500 52.000,66.500 52.000,66.500 C52.000,66.776 51.776,67.000 51.500,67.000 ZM41.500,67.000 C41.500,67.000 40.500,67.000 40.500,67.000 C40.224,67.000 40.000,66.776 40.000,66.500 C40.000,66.500 40.000,35.500 40.000,35.500 C40.000,35.224 40.224,35.000 40.500,35.000 C40.500,35.000 41.500,35.000 41.500,35.000 C41.776,35.000 42.000,35.224 42.000,35.500 C42.000,35.500 42.000,66.500 42.000,66.500 C42.000,66.776 41.776,67.000 41.500,67.000 Z" id="path-2" class="cls-6" fill-rule="evenodd"/>
      <rect id="rect-1" class="cls-5" x="29" y="29" width="47" height="2"/>
      <rect id="rect-2" class="cls-5" x="43" y="23" width="19" height="8"/>
    </g>
  </g>
</svg>
