<svg xmlns="http://www.w3.org/2000/svg" xmlns:xlink="http://www.w3.org/1999/xlink" preserveAspectRatio="xMidYMid" width="102" height="102" viewBox="0 0 102 102">
  <defs>
    <style>

      .cls-3 {
        stroke: #d8d8d8;
        stroke-width: 2px;
        fill: none;
      }
    </style>
  </defs>
  <g id="disable">
    <circle id="circle-1" class="cls-3" cx="51" cy="51" r="50"/>
    <path d="M88.000,51.766 C88.000,50.803 87.380,50.205 86.511,49.767 C86.459,49.736 29.658,26.109 29.658,26.109 C29.507,26.044 29.348,26.014 29.188,26.014 C28.962,26.014 28.740,26.073 28.545,26.193 C28.214,26.397 28.015,26.750 28.015,27.122 C28.015,27.122 28.015,47.278 28.015,47.278 C28.015,47.876 28.511,48.363 29.140,48.386 C29.140,48.386 84.741,51.860 84.741,51.860 C84.741,51.860 29.218,55.794 29.218,55.794 C28.589,55.819 28.093,56.306 28.093,56.905 C28.093,56.905 28.093,76.905 28.093,76.905 C28.093,77.276 28.292,77.629 28.623,77.835 C28.818,77.953 29.040,78.014 29.265,78.014 C29.425,78.014 29.584,77.983 29.736,77.918 C29.736,77.918 85.871,54.083 85.871,54.083 C86.999,53.674 88.000,52.933 88.000,51.766 Z" id="path-1" class="cls-3" fill-rule="evenodd"/>
  </g>
</svg>
