<svg xmlns="http://www.w3.org/2000/svg" xmlns:xlink="http://www.w3.org/1999/xlink" preserveAspectRatio="xMidYMid" width="54" height="54" viewBox="0 0 54 54">
  <defs>
    <style>

      .cls-3 {
        fill: #ffffff;
      }

      .cls-4 {
        fill: #d88a03;
      }
    </style>
  </defs>
  <g id="busy">
    <circle id="circle-1" class="cls-3" cx="27" cy="27" r="27"/>
    <path d="M25.381,48.957 C12.970,48.346 3.404,37.798 4.015,25.395 C4.627,12.993 15.182,3.433 27.593,4.044 C40.003,4.654 49.569,15.203 48.958,27.606 C48.347,40.008 37.791,49.567 25.381,48.957 ZM27.349,8.984 C17.669,8.508 9.436,15.964 8.959,25.638 C8.483,35.312 15.944,43.540 25.624,44.017 C35.304,44.493 43.538,37.036 44.014,27.363 C44.491,17.689 37.030,9.460 27.349,8.984 ZM25.883,38.762 C19.107,38.429 13.884,32.669 14.217,25.897 C14.551,19.125 20.314,13.906 27.091,14.239 C33.867,14.572 39.090,20.332 38.756,27.104 C38.423,33.876 32.659,39.095 25.883,38.762 Z" id="path-1" class="cls-4" fill-rule="evenodd"/>
  </g>
</svg>
