<svg xmlns="http://www.w3.org/2000/svg" xmlns:xlink="http://www.w3.org/1999/xlink" preserveAspectRatio="xMidYMid" width="54" height="54" viewBox="0 0 54 54">
  <defs>
    <style>

      .cls-3 {
        fill: #f2f7f9;
      }

      .cls-4 {
        fill: #ca3636;
      }
    </style>
  </defs>
  <g id="gray-do-not-disturb">
    <circle id="circle-1" class="cls-3" cx="27" cy="27" r="27"/>
    <path d="M25.397,48.962 C12.992,48.352 3.430,37.800 4.040,25.395 C4.651,12.989 15.203,3.428 27.608,4.038 C40.013,4.649 49.575,15.201 48.964,27.606 C48.354,40.011 37.802,49.573 25.397,48.962 ZM27.365,8.980 C17.688,8.504 9.458,15.962 8.982,25.638 C8.506,35.314 15.964,43.544 25.640,44.021 C35.317,44.497 43.546,37.039 44.023,27.362 C44.500,17.687 37.041,9.456 27.365,8.980 ZM25.899,38.765 C19.125,38.431 13.905,32.670 14.238,25.897 C14.571,19.123 20.332,13.903 27.106,14.236 C33.879,14.570 39.100,20.331 38.766,27.104 C38.433,33.877 32.672,39.098 25.899,38.765 Z" id="path-1" class="cls-4" fill-rule="evenodd"/>
  </g>
</svg>
