<svg xmlns="http://www.w3.org/2000/svg" xmlns:xlink="http://www.w3.org/1999/xlink" preserveAspectRatio="xMidYMid" width="54" height="54" viewBox="0 0 54 54">
  <defs>
    <style>

      .cls-3 {
        fill: #ffffff;
      }

      .cls-4 {
        fill: #ac2bb4;
      }
    </style>
  </defs>
  <g id="waiting-call">
    <circle id="circle-1" class="cls-3" cx="27" cy="27" r="27"/>
    <path d="M25.403,48.970 C12.998,48.359 3.437,37.808 4.047,25.402 C4.657,12.997 15.210,3.435 27.614,4.046 C40.020,4.656 49.582,15.208 48.971,27.614 C48.361,40.019 37.809,49.580 25.403,48.970 ZM27.371,8.987 C17.695,8.511 9.465,15.969 8.989,25.645 C8.512,35.322 15.970,43.552 25.646,44.029 C35.323,44.505 43.553,37.047 44.029,27.370 C44.506,17.694 37.048,9.464 27.371,8.987 ZM25.905,38.772 C19.132,38.439 13.911,32.678 14.244,25.904 C14.578,19.131 20.339,13.910 27.113,14.244 C33.886,14.577 39.107,20.338 38.773,27.112 C38.440,33.885 32.679,39.106 25.905,38.772 Z" id="path-1" class="cls-4" fill-rule="evenodd"/>
  </g>
</svg>
