<svg xmlns="http://www.w3.org/2000/svg" xmlns:xlink="http://www.w3.org/1999/xlink" preserveAspectRatio="xMidYMid" width="54" height="54" viewBox="0 0 54 54">
  <defs>
    <style>

      .cls-3 {
        fill: #ffffff;
      }

      .cls-4 {
        fill: #ca3636;
      }
    </style>
  </defs>
  <g id="do-not-disturb">
    <circle id="circle-1" class="cls-3" cx="27" cy="27" r="27"/>
    <path d="M25.403,48.968 C12.998,48.357 3.436,37.806 4.047,25.400 C4.658,12.995 15.209,3.433 27.614,4.044 C40.020,4.654 49.582,15.206 48.971,27.612 C48.360,40.017 37.809,49.578 25.403,48.968 ZM27.371,8.985 C17.695,8.509 9.465,15.967 8.989,25.643 C8.512,35.320 15.970,43.550 25.647,44.026 C35.323,44.503 43.553,37.044 44.029,27.368 C44.506,17.692 37.048,9.461 27.371,8.985 ZM25.905,38.770 C19.132,38.437 13.911,32.676 14.245,25.902 C14.578,19.129 20.339,13.908 27.113,14.241 C33.886,14.575 39.107,20.336 38.773,27.109 C38.440,33.883 32.679,39.103 25.905,38.770 Z" id="path-1" class="cls-4" fill-rule="evenodd"/>
  </g>
</svg>
