<svg xmlns="http://www.w3.org/2000/svg" xmlns:xlink="http://www.w3.org/1999/xlink" preserveAspectRatio="xMidYMid" width="46" height="46" viewBox="0 0 46 46">
  <defs>
    <style>

      .cls-3 {
        fill: #00688f;
      }

      .cls-4 {
        fill: #ffffff;
      }
    </style>
  </defs>
  <g id="camp-on-indicator">
    <circle id="circle-1" class="cls-3" cx="23" cy="23" r="23"/>
    <path d="M29.014,24.994 C29.014,24.994 35.515,16.000 35.515,16.000 C35.515,16.000 42.012,24.994 42.012,24.994 C42.012,24.994 29.014,24.994 29.014,24.994 ZM22.503,34.006 C27.992,34.006 32.576,30.151 33.718,25.000 C33.718,25.000 37.780,25.000 37.780,25.000 C36.582,32.369 30.207,38.000 22.500,38.000 C13.939,38.000 7.000,31.060 7.000,22.500 C7.000,14.108 13.673,7.291 22.000,7.025 C22.000,7.025 22.000,11.012 22.000,11.012 C15.886,11.278 11.008,16.310 11.008,22.496 C11.008,28.853 16.154,34.006 22.503,34.006 Z" id="path-1" class="cls-4" fill-rule="evenodd"/>
  </g>
</svg>
