<svg xmlns="http://www.w3.org/2000/svg" xmlns:xlink="http://www.w3.org/1999/xlink" preserveAspectRatio="xMidYMid" width="112" height="103" viewBox="0 0 112 103">
  <defs>
    <style>

      .cls-3 {
        fill: #38b42b;
      }

      .cls-4 {
        stroke: #38b42b;
        stroke-width: 2px;
        fill: none;
      }
    </style>
  </defs>
  <g id="secure-call-green">
    <path d="M35.992,38.009 C35.992,38.009 35.992,35.995 35.992,35.995 C35.992,35.995 76.009,35.995 76.009,35.995 C76.009,35.995 76.009,38.009 76.009,38.009 C76.009,38.009 35.992,38.009 35.992,38.009 ZM56.000,43.000 C59.314,43.000 62.000,45.686 62.000,49.000 C62.000,51.215 60.786,53.128 59.000,54.168 C59.000,54.168 59.000,61.000 59.000,61.000 C59.000,61.552 58.552,62.000 58.000,62.000 C58.000,62.000 54.000,62.000 54.000,62.000 C53.447,62.000 53.000,61.552 53.000,61.000 C53.000,61.000 53.000,54.168 53.000,54.168 C51.214,53.128 50.000,51.215 50.000,49.000 C50.000,45.686 52.686,43.000 56.000,43.000 Z" id="path-1" class="cls-3" fill-rule="evenodd"/>
    <path d="M77.000,36.999 C77.000,36.999 77.000,26.999 77.000,26.999 C77.000,16.086 67.716,6.999 57.000,6.999 C46.283,6.999 37.000,16.086 37.000,26.999 C37.000,26.999 37.000,36.999 37.000,36.999 C37.000,36.999 34.000,36.999 34.000,36.999 C34.000,36.999 34.001,72.987 34.001,72.987 C34.001,72.987 80.000,72.987 80.000,72.987 C80.000,72.987 80.000,36.999 80.000,36.999 C80.000,36.999 77.000,36.999 77.000,36.999 Z" id="path-2" class="cls-4" fill-rule="evenodd"/>
    <path d="M111.500,72.000 C111.500,72.000 109.500,72.000 109.500,72.000 C109.224,72.000 109.000,71.776 109.000,71.500 C109.000,71.500 109.000,31.500 109.000,31.500 C109.000,31.224 109.224,31.000 109.500,31.000 C109.500,31.000 111.500,31.000 111.500,31.000 C111.776,31.000 112.000,31.224 112.000,31.500 C112.000,31.500 112.000,71.500 112.000,71.500 C112.000,71.776 111.776,72.000 111.500,72.000 ZM101.500,81.999 C101.500,81.999 99.500,81.999 99.500,81.999 C99.224,81.999 99.000,81.775 99.000,81.499 C99.000,81.499 99.000,21.499 99.000,21.499 C99.000,21.223 99.224,20.999 99.500,20.999 C99.500,20.999 101.500,20.999 101.500,20.999 C101.776,20.999 102.000,21.223 102.000,21.499 C102.000,21.499 102.000,81.499 102.000,81.499 C102.000,81.775 101.776,81.999 101.500,81.999 ZM91.500,103.000 C91.500,103.000 89.500,103.000 89.500,103.000 C89.224,103.000 89.000,102.776 89.000,102.500 C89.000,102.500 89.000,0.500 89.000,0.500 C89.000,0.224 89.224,-0.000 89.500,-0.000 C89.500,-0.000 91.500,-0.000 91.500,-0.000 C91.776,-0.000 92.000,0.224 92.000,0.500 C92.000,0.500 92.000,102.500 92.000,102.500 C92.000,102.776 91.776,103.000 91.500,103.000 ZM22.500,103.000 C22.500,103.000 20.500,103.000 20.500,103.000 C20.224,103.000 20.000,102.776 20.000,102.500 C20.000,102.500 20.000,0.500 20.000,0.500 C20.000,0.224 20.224,-0.000 20.500,-0.000 C20.500,-0.000 22.500,-0.000 22.500,-0.000 C22.776,-0.000 23.000,0.224 23.000,0.500 C23.000,0.500 23.000,102.500 23.000,102.500 C23.000,102.776 22.776,103.000 22.500,103.000 ZM12.500,81.999 C12.500,81.999 10.499,81.999 10.499,81.999 C10.223,81.999 10.000,81.775 10.000,81.499 C10.000,81.499 10.000,21.499 10.000,21.499 C10.000,21.223 10.223,20.999 10.499,20.999 C10.499,20.999 12.500,20.999 12.500,20.999 C12.776,20.999 13.000,21.223 13.000,21.499 C13.000,21.499 13.000,81.499 13.000,81.499 C13.000,81.775 12.776,81.999 12.500,81.999 ZM2.500,72.000 C2.500,72.000 0.500,72.000 0.500,72.000 C0.224,72.000 -0.000,71.776 -0.000,71.500 C-0.000,71.500 -0.000,31.500 -0.000,31.500 C-0.000,31.224 0.224,31.000 0.500,31.000 C0.500,31.000 2.500,31.000 2.500,31.000 C2.776,31.000 3.000,31.224 3.000,31.500 C3.000,31.500 3.000,71.500 3.000,71.500 C3.000,71.776 2.776,72.000 2.500,72.000 Z" id="path-3" class="cls-3" fill-rule="evenodd"/>
  </g>
</svg>
