<svg xmlns="http://www.w3.org/2000/svg" xmlns:xlink="http://www.w3.org/1999/xlink" preserveAspectRatio="xMidYMid" width="34" height="34" viewBox="0 0 34 34">
  <defs>
    <style>

      .cls-2 {
        fill: #4a4a4a;
      }
    </style>
  </defs>
  <path d="M33.638,28.569 C31.712,33.187 27.197,33.996 25.722,33.996 C25.288,33.996 18.541,34.354 8.842,25.150 C1.036,17.743 0.082,9.778 -0.001,8.265 C-0.082,6.791 0.340,3.093 5.425,0.345 C6.055,0.005 7.304,-0.145 7.627,0.177 C7.770,0.320 12.038,7.346 12.150,7.579 C12.263,7.811 12.319,8.040 12.319,8.265 C12.319,8.586 12.090,8.987 11.633,9.468 C11.175,9.950 10.679,10.391 10.141,10.792 C9.603,11.193 9.107,11.618 8.649,12.068 C8.192,12.516 7.963,12.886 7.963,13.175 C7.994,13.924 8.608,16.608 13.284,20.718 C17.961,24.829 20.214,25.987 20.430,26.068 C20.647,26.148 20.827,26.187 20.972,26.187 C21.260,26.187 21.630,25.959 22.078,25.502 C22.528,25.045 24.037,22.974 24.518,22.517 C25.000,22.060 25.401,21.832 25.722,21.832 C25.946,21.832 26.175,21.887 26.407,22.000 C26.640,22.112 33.672,26.228 33.806,26.366 C34.171,26.740 33.914,27.907 33.638,28.569 " id="path-1" class="cls-2" fill-rule="evenodd"/>
</svg>
