<svg xmlns="http://www.w3.org/2000/svg" xmlns:xlink="http://www.w3.org/1999/xlink" preserveAspectRatio="xMidYMid" width="48" height="48" viewBox="0 0 48 48">
  <defs>
    <style>

      .cls-2 {
        fill: #4a4a4a;
      }
    </style>
  </defs>
  <path d="M24.000,48.000 C10.745,48.000 -0.000,37.255 -0.000,24.000 C-0.000,10.745 10.745,-0.000 24.000,-0.000 C37.255,-0.000 48.000,10.745 48.000,24.000 C48.000,37.255 37.255,48.000 24.000,48.000 ZM35.033,17.300 C36.257,16.075 36.257,14.091 35.033,12.866 C33.809,11.642 31.824,11.642 30.599,12.866 C30.599,12.866 23.950,19.516 23.950,19.516 C23.950,19.516 17.300,12.866 17.300,12.866 C16.076,11.642 14.091,11.642 12.867,12.866 C11.643,14.091 11.643,16.075 12.867,17.300 C12.867,17.300 19.517,23.949 19.517,23.949 C19.517,23.949 12.867,30.599 12.867,30.599 C11.643,31.823 11.643,33.808 12.867,35.032 C14.091,36.256 16.076,36.256 17.300,35.032 C17.300,35.032 23.950,28.382 23.950,28.382 C23.950,28.382 30.599,35.032 30.599,35.032 C31.824,36.256 33.809,36.256 35.033,35.032 C36.257,33.808 36.257,31.823 35.033,30.599 C35.033,30.599 28.383,23.949 28.383,23.949 C28.383,23.949 35.033,17.300 35.033,17.300 Z" id="path-1" class="cls-2" fill-rule="evenodd"/>
</svg>
