<svg xmlns="http://www.w3.org/2000/svg" xmlns:xlink="http://www.w3.org/1999/xlink" preserveAspectRatio="xMidYMid" width="62" height="53" viewBox="0 0 62 53">
  <defs>
    <style>

      .cls-3 {
        fill: #ca3636;
        stroke: #ffffff;
        stroke-width: 2px;
      }

      .cls-4 {
        fill: #ffffff;
      }
    </style>
  </defs>
  <g id="red-alert-iconsvg">
    <path d="M60.242,46.798 C60.242,46.798 34.105,3.137 34.105,3.137 C32.393,0.276 29.590,0.276 27.877,3.137 C27.877,3.137 1.740,46.798 1.740,46.798 C0.028,49.660 1.429,52.000 4.855,52.000 C4.855,52.000 57.128,52.000 57.128,52.000 C60.553,52.000 61.955,49.660 60.242,46.798 Z" id="path-1" class="cls-3" fill-rule="evenodd"/>
    <path d="M32.034,45.000 C32.034,45.000 28.028,45.000 28.028,45.000 C27.476,45.000 27.028,44.552 27.028,44.000 C27.028,44.000 27.028,40.000 27.028,40.000 C27.028,39.448 27.476,39.000 28.028,39.000 C28.028,39.000 32.034,39.000 32.034,39.000 C32.587,39.000 33.034,39.448 33.034,40.000 C33.034,40.000 33.034,44.000 33.034,44.000 C33.034,44.552 32.587,45.000 32.034,45.000 ZM32.034,36.000 C32.034,36.000 28.028,36.000 28.028,36.000 C27.476,36.000 27.028,35.552 27.028,35.000 C27.028,35.000 27.028,16.000 27.028,16.000 C27.028,15.448 27.476,15.000 28.028,15.000 C28.028,15.000 32.034,15.000 32.034,15.000 C32.587,15.000 33.034,15.448 33.034,16.000 C33.034,16.000 33.034,35.000 33.034,35.000 C33.034,35.552 32.587,36.000 32.034,36.000 Z" id="path-2" class="cls-4" fill-rule="evenodd"/>
  </g>
</svg>
