<svg xmlns="http://www.w3.org/2000/svg" xmlns:xlink="http://www.w3.org/1999/xlink" preserveAspectRatio="xMidYMid" width="67" height="67" viewBox="0 0 67 67">
  <defs>
    <style>

      .cls-2 {
        fill: #f3d613;
      }
    </style>
  </defs>
  <path d="M53.688,67.016 C53.688,67.016 51.187,42.994 51.187,42.994 C51.187,42.994 66.997,26.603 66.997,26.603 C66.997,26.603 44.670,23.371 44.670,23.371 C44.670,23.371 33.499,-0.009 33.499,-0.009 C33.499,-0.009 22.326,23.371 22.326,23.371 C22.326,23.371 -0.002,26.440 -0.002,26.440 C-0.002,26.440 15.809,42.994 15.809,42.994 C15.809,42.994 13.302,66.987 13.302,66.987 C13.302,66.987 33.479,54.208 33.479,54.208 C33.495,54.208 33.505,54.208 33.525,54.208 C33.525,54.208 53.688,67.016 53.688,67.016 Z" id="path-1" class="cls-2" fill-rule="evenodd"/>
</svg>
