<svg xmlns="http://www.w3.org/2000/svg" xmlns:xlink="http://www.w3.org/1999/xlink" preserveAspectRatio="xMidYMid" width="60" height="51" viewBox="0 0 60 51">
  <defs>
    <style>

      .cls-2 {
        fill: #ffffff;
      }
    </style>
  </defs>
  <path d="M56.158,50.988 C56.158,50.988 3.857,50.988 3.857,50.988 C0.429,50.988 -0.973,48.649 0.740,45.788 C0.740,45.788 26.891,2.154 26.891,2.154 C28.605,-0.705 31.409,-0.705 33.123,2.154 C33.123,2.154 59.273,45.788 59.273,45.788 C60.987,48.649 59.584,50.988 56.158,50.988 ZM33.000,16.000 C33.000,15.448 32.552,15.000 32.000,15.000 C32.000,15.000 28.000,15.000 28.000,15.000 C27.448,15.000 27.000,15.448 27.000,16.000 C27.000,16.000 27.000,35.000 27.000,35.000 C27.000,35.552 27.448,36.000 28.000,36.000 C28.000,36.000 32.000,36.000 32.000,36.000 C32.552,36.000 33.000,35.552 33.000,35.000 C33.000,35.000 33.000,16.000 33.000,16.000 ZM33.000,40.000 C33.000,39.448 32.552,39.000 32.000,39.000 C32.000,39.000 28.000,39.000 28.000,39.000 C27.448,39.000 27.000,39.448 27.000,40.000 C27.000,40.000 27.000,44.000 27.000,44.000 C27.000,44.552 27.448,45.000 28.000,45.000 C28.000,45.000 32.000,45.000 32.000,45.000 C32.552,45.000 33.000,44.552 33.000,44.000 C33.000,44.000 33.000,40.000 33.000,40.000 Z" id="path-1" class="cls-2" fill-rule="evenodd"/>
</svg>
