<svg xmlns="http://www.w3.org/2000/svg" xmlns:xlink="http://www.w3.org/1999/xlink" preserveAspectRatio="xMidYMid" width="75" height="57" viewBox="0 0 75 57">
  <defs>
    <style>

      .cls-2 {
        fill: #00688f;
        opacity: 0.3;
      }
    </style>
  </defs>
  <path d="M18.750,-0.000 C18.750,-0.000 -0.000,28.500 -0.000,28.500 C-0.000,28.500 18.750,56.999 18.750,56.999 C18.750,56.999 75.000,56.999 75.000,56.999 C75.000,56.999 75.000,-0.000 75.000,-0.000 C75.000,-0.000 18.750,-0.000 18.750,-0.000 ZM37.500,12.321 C37.500,12.321 46.875,21.821 46.875,21.821 C46.875,21.821 56.250,12.321 56.250,12.321 C56.250,12.321 62.840,19.000 62.840,19.000 C62.840,19.000 53.465,28.500 53.465,28.500 C53.465,28.500 62.840,37.999 62.840,37.999 C62.840,37.999 56.250,44.678 56.250,44.678 C56.250,44.678 46.875,35.178 46.875,35.178 C46.875,35.178 37.500,44.678 37.500,44.678 C37.500,44.678 30.909,37.999 30.909,37.999 C30.909,37.999 40.284,28.500 40.284,28.500 C40.284,28.500 30.909,19.000 30.909,19.000 C30.909,19.000 37.500,12.321 37.500,12.321 Z" id="path-1" class="cls-2" fill-rule="evenodd"/>
</svg>
