<svg xmlns="http://www.w3.org/2000/svg" xmlns:xlink="http://www.w3.org/1999/xlink" preserveAspectRatio="xMidYMid" width="24" height="27" viewBox="0 0 24 27">
  <defs>
    <style>

      .cls-2 {
        fill: #4a4a4a;
      }
    </style>
  </defs>
  <path d="M21.000,27.000 C21.000,27.000 18.000,27.000 18.000,27.000 C16.343,27.000 15.000,25.657 15.000,24.000 C15.000,24.000 15.000,3.000 15.000,3.000 C15.000,1.343 16.343,-0.000 18.000,-0.000 C18.000,-0.000 21.000,-0.000 21.000,-0.000 C22.657,-0.000 24.000,1.343 24.000,3.000 C24.000,3.000 24.000,24.000 24.000,24.000 C24.000,25.657 22.657,27.000 21.000,27.000 ZM6.000,27.000 C6.000,27.000 3.000,27.000 3.000,27.000 C1.343,27.000 -0.000,25.657 -0.000,24.000 C-0.000,24.000 -0.000,3.000 -0.000,3.000 C-0.000,1.343 1.343,-0.000 3.000,-0.000 C3.000,-0.000 6.000,-0.000 6.000,-0.000 C7.657,-0.000 9.000,1.343 9.000,3.000 C9.000,3.000 9.000,24.000 9.000,24.000 C9.000,25.657 7.657,27.000 6.000,27.000 Z" id="path-1" class="cls-2" fill-rule="evenodd"/>
</svg>
