<svg xmlns="http://www.w3.org/2000/svg" xmlns:xlink="http://www.w3.org/1999/xlink" preserveAspectRatio="xMidYMid" width="49" height="48" viewBox="0 0 49 48">
  <defs>
    <style>

      .cls-2 {
        fill: #005473;
      }
    </style>
  </defs>
  <path d="M46.841,41.169 C46.841,41.169 35.352,29.684 35.352,29.684 C35.220,29.553 35.071,29.450 34.929,29.340 C36.869,26.364 38.007,22.821 38.007,19.001 C38.007,8.512 29.499,0.011 19.001,0.011 C8.505,0.011 -0.005,8.512 -0.005,19.001 C-0.005,29.493 8.505,37.992 19.001,37.992 C22.818,37.992 26.369,36.857 29.350,34.919 C29.460,35.061 29.562,35.205 29.692,35.337 C29.692,35.337 41.176,46.821 41.176,46.821 C41.964,47.600 42.989,47.994 44.008,47.994 C45.029,47.994 46.055,47.600 46.841,46.823 C48.398,45.258 48.398,42.730 46.841,41.169 M19.001,31.996 C11.830,31.996 5.997,26.166 5.997,19.001 C5.997,11.839 11.830,6.008 19.001,6.008 C26.166,6.008 32.005,11.839 32.005,19.001 C32.005,26.166 26.166,31.996 19.001,31.996 " id="path-1" class="cls-2" fill-rule="evenodd"/>
</svg>
