<svg xmlns="http://www.w3.org/2000/svg" xmlns:xlink="http://www.w3.org/1999/xlink" preserveAspectRatio="xMidYMid" width="47" height="46" viewBox="0 0 47 46">
  <defs>
    <style>

      .cls-2 {
        fill: #979797;
      }
    </style>
  </defs>
  <path d="M47.281,25.625 C47.281,25.625 11.493,25.625 11.493,25.625 C11.493,25.625 26.878,41.010 26.878,41.010 C26.878,41.010 22.635,45.252 22.635,45.252 C22.635,45.252 3.008,25.625 3.008,25.625 C3.008,25.625 2.281,25.625 2.281,25.625 C2.281,25.625 2.281,24.898 2.281,24.898 C2.281,24.898 0.008,22.625 0.008,22.625 C0.008,22.625 2.281,20.352 2.281,20.352 C2.281,20.352 2.281,19.625 2.281,19.625 C2.281,19.625 3.008,19.625 3.008,19.625 C3.008,19.625 22.635,-0.003 22.635,-0.003 C22.635,-0.003 26.878,4.240 26.878,4.240 C26.878,4.240 11.493,19.625 11.493,19.625 C11.493,19.625 47.281,19.625 47.281,19.625 C47.281,19.625 47.281,25.625 47.281,25.625 Z" id="path-1" class="cls-2" fill-rule="evenodd"/>
</svg>
