<svg xmlns="http://www.w3.org/2000/svg" xmlns:xlink="http://www.w3.org/1999/xlink" preserveAspectRatio="xMidYMid" width="53" height="53" viewBox="0 0 53 53">
  <defs>
    <style>

      .cls-2 {
        fill: #38b42b;
      }
    </style>
  </defs>
  <path d="M52.476,44.534 C49.466,51.737 42.418,53.004 40.116,53.006 C39.440,53.006 28.909,53.571 13.783,39.230 C1.609,27.689 0.129,15.269 0.001,12.910 C-0.123,10.611 0.539,4.845 8.478,0.555 C9.462,0.023 11.411,-0.213 11.914,0.290 C12.138,0.513 18.790,11.464 18.965,11.827 C19.140,12.189 19.228,12.546 19.227,12.896 C19.227,13.396 18.870,14.022 18.155,14.773 C17.442,15.524 16.665,16.213 15.826,16.839 C14.987,17.465 14.211,18.129 13.496,18.830 C12.783,19.530 12.426,20.107 12.425,20.557 C12.472,21.725 13.428,25.910 20.720,32.314 C28.014,38.720 31.529,40.523 31.866,40.648 C32.205,40.773 32.486,40.834 32.711,40.834 C33.162,40.834 33.738,40.477 34.440,39.764 C35.140,39.050 37.499,35.821 38.250,35.107 C39.002,34.394 39.628,34.036 40.129,34.036 C40.479,34.036 40.836,34.123 41.199,34.298 C41.561,34.472 52.531,40.884 52.741,41.098 C53.310,41.681 52.907,43.502 52.476,44.534 " id="path-1" class="cls-2" fill-rule="evenodd"/>
</svg>
