<svg xmlns="http://www.w3.org/2000/svg" xmlns:xlink="http://www.w3.org/1999/xlink" preserveAspectRatio="xMidYMid" width="70" height="70" viewBox="0 0 70 70">
  <defs>
    <style>

      .cls-2 {
        stroke: #979797;
        stroke-width: 3px;
        fill: none;
      }
    </style>
  </defs>
  <path d="M55.188,68.516 C55.188,68.516 52.687,44.494 52.687,44.494 C52.687,44.494 68.497,28.103 68.497,28.103 C68.497,28.103 46.170,24.871 46.170,24.871 C46.170,24.871 34.999,1.491 34.999,1.491 C34.999,1.491 23.826,24.871 23.826,24.871 C23.826,24.871 1.498,27.940 1.498,27.940 C1.498,27.940 17.309,44.494 17.309,44.494 C17.309,44.494 14.802,68.487 14.802,68.487 C14.802,68.487 34.979,55.708 34.979,55.708 C34.995,55.708 35.006,55.708 35.024,55.708 C35.024,55.708 55.188,68.516 55.188,68.516 Z" id="path-1" class="cls-2" fill-rule="evenodd"/>
</svg>
