<svg xmlns="http://www.w3.org/2000/svg" xmlns:xlink="http://www.w3.org/1999/xlink" preserveAspectRatio="xMidYMid" width="36" height="43" viewBox="0 0 36 43">
  <defs>
    <style>

      .cls-2 {
        fill: #00688f;
      }
    </style>
  </defs>
  <path d="M35.000,43.000 C35.000,43.000 24.000,43.000 24.000,43.000 C23.447,43.000 23.000,42.552 23.000,42.000 C23.000,42.000 23.000,1.000 23.000,1.000 C23.000,0.448 23.447,-0.000 24.000,-0.000 C24.000,-0.000 35.000,-0.000 35.000,-0.000 C35.552,-0.000 36.000,0.448 36.000,1.000 C36.000,1.000 36.000,42.000 36.000,42.000 C36.000,42.552 35.552,43.000 35.000,43.000 ZM12.000,43.000 C12.000,43.000 1.000,43.000 1.000,43.000 C0.448,43.000 -0.000,42.552 -0.000,42.000 C-0.000,42.000 -0.000,1.000 -0.000,1.000 C-0.000,0.448 0.448,-0.000 1.000,-0.000 C1.000,-0.000 12.000,-0.000 12.000,-0.000 C12.552,-0.000 13.000,0.448 13.000,1.000 C13.000,1.000 13.000,42.000 13.000,42.000 C13.000,42.552 12.552,43.000 12.000,43.000 Z" id="path-1" class="cls-2" fill-rule="evenodd"/>
</svg>
