<svg xmlns="http://www.w3.org/2000/svg" xmlns:xlink="http://www.w3.org/1999/xlink" preserveAspectRatio="xMidYMid" width="86" height="116" viewBox="0 0 86 116">
  <defs>
    <style>

      .cls-2 {
        fill: #003a4f;
      }
    </style>
  </defs>
  <path d="M81.987,85.987 C81.987,85.987 63.987,85.987 63.987,85.987 C61.778,85.987 59.987,84.197 59.987,81.988 C59.987,81.988 59.987,63.988 59.987,63.988 C59.987,61.778 61.778,59.988 63.987,59.988 C63.987,59.988 81.987,59.988 81.987,59.988 C84.196,59.988 85.987,61.778 85.987,63.988 C85.987,63.988 85.987,81.988 85.987,81.988 C85.987,84.197 84.196,85.987 81.987,85.987 ZM81.987,55.988 C81.987,55.988 63.987,55.988 63.987,55.988 C61.778,55.988 59.987,54.197 59.987,51.988 C59.987,51.988 59.987,33.988 59.987,33.988 C59.987,31.778 61.778,29.987 63.987,29.987 C63.987,29.987 81.987,29.987 81.987,29.987 C84.196,29.987 85.987,31.778 85.987,33.988 C85.987,33.988 85.987,51.988 85.987,51.988 C85.987,54.197 84.196,55.988 81.987,55.988 ZM81.987,25.987 C81.987,25.987 63.987,25.987 63.987,25.987 C61.778,25.987 59.987,24.197 59.987,21.988 C59.987,21.988 59.987,3.987 59.987,3.987 C59.987,1.778 61.778,-0.012 63.987,-0.012 C63.987,-0.012 81.987,-0.012 81.987,-0.012 C84.196,-0.012 85.987,1.778 85.987,3.987 C85.987,3.987 85.987,21.988 85.987,21.988 C85.987,24.197 84.196,25.987 81.987,25.987 ZM51.988,115.988 C51.988,115.988 33.988,115.988 33.988,115.988 C31.778,115.988 29.988,114.197 29.988,111.987 C29.988,111.987 29.988,93.987 29.988,93.987 C29.988,91.778 31.778,89.988 33.988,89.988 C33.988,89.988 51.988,89.988 51.988,89.988 C54.197,89.988 55.988,91.778 55.988,93.987 C55.988,93.987 55.988,111.987 55.988,111.987 C55.988,114.197 54.197,115.988 51.988,115.988 ZM51.988,85.987 C51.988,85.987 33.988,85.987 33.988,85.987 C31.778,85.987 29.988,84.197 29.988,81.988 C29.988,81.988 29.988,63.988 29.988,63.988 C29.988,61.778 31.778,59.988 33.988,59.988 C33.988,59.988 51.988,59.988 51.988,59.988 C54.197,59.988 55.988,61.778 55.988,63.988 C55.988,63.988 55.988,81.988 55.988,81.988 C55.988,84.197 54.197,85.987 51.988,85.987 ZM51.988,55.988 C51.988,55.988 33.988,55.988 33.988,55.988 C31.778,55.988 29.988,54.197 29.988,51.988 C29.988,51.988 29.988,33.988 29.988,33.988 C29.988,31.778 31.778,29.987 33.988,29.987 C33.988,29.987 51.988,29.987 51.988,29.987 C54.197,29.987 55.988,31.778 55.988,33.988 C55.988,33.988 55.988,51.988 55.988,51.988 C55.988,54.197 54.197,55.988 51.988,55.988 ZM51.988,25.987 C51.988,25.987 33.988,25.987 33.988,25.987 C31.778,25.987 29.988,24.197 29.988,21.988 C29.988,21.988 29.988,3.987 29.988,3.987 C29.988,1.778 31.778,-0.012 33.988,-0.012 C33.988,-0.012 51.988,-0.012 51.988,-0.012 C54.197,-0.012 55.988,1.778 55.988,3.987 C55.988,3.987 55.988,21.988 55.988,21.988 C55.988,24.197 54.197,25.987 51.988,25.987 ZM21.987,85.987 C21.987,85.987 3.988,85.987 3.988,85.987 C1.778,85.987 -0.013,84.197 -0.013,81.988 C-0.013,81.988 -0.013,63.988 -0.013,63.988 C-0.013,61.778 1.778,59.988 3.988,59.988 C3.988,59.988 21.987,59.988 21.987,59.988 C24.197,59.988 25.987,61.778 25.987,63.988 C25.987,63.988 25.987,81.988 25.987,81.988 C25.987,84.197 24.197,85.987 21.987,85.987 ZM21.987,55.988 C21.987,55.988 3.988,55.988 3.988,55.988 C1.778,55.988 -0.013,54.197 -0.013,51.988 C-0.013,51.988 -0.013,33.988 -0.013,33.988 C-0.013,31.778 1.778,29.987 3.988,29.987 C3.988,29.987 21.987,29.987 21.987,29.987 C24.197,29.987 25.987,31.778 25.987,33.988 C25.987,33.988 25.987,51.988 25.987,51.988 C25.987,54.197 24.197,55.988 21.987,55.988 ZM21.987,25.987 C21.987,25.987 3.988,25.987 3.988,25.987 C1.778,25.987 -0.013,24.197 -0.013,21.988 C-0.013,21.988 -0.013,3.987 -0.013,3.987 C-0.013,1.778 1.778,-0.012 3.988,-0.012 C3.988,-0.012 21.987,-0.012 21.987,-0.012 C24.197,-0.012 25.987,1.778 25.987,3.987 C25.987,3.987 25.987,21.988 25.987,21.988 C25.987,24.197 24.197,25.987 21.987,25.987 Z" id="path-1" class="cls-2" fill-rule="evenodd"/>
</svg>
