<svg xmlns="http://www.w3.org/2000/svg" xmlns:xlink="http://www.w3.org/1999/xlink" preserveAspectRatio="xMidYMid" width="89" height="119" viewBox="0 0 89 119">
  <defs>
    <style>

      .cls-2 {
        stroke: #979797;
        stroke-width: 3px;
        fill: none;
      }
    </style>
  </defs>
  <path d="M83.487,87.488 C83.487,87.488 65.487,87.488 65.487,87.488 C63.278,87.488 61.487,85.697 61.487,83.488 C61.487,83.488 61.487,65.488 61.487,65.488 C61.487,63.278 63.278,61.487 65.487,61.487 C65.487,61.487 83.487,61.487 83.487,61.487 C85.696,61.487 87.487,63.278 87.487,65.488 C87.487,65.488 87.487,83.488 87.487,83.488 C87.487,85.697 85.696,87.488 83.487,87.488 ZM83.487,57.487 C83.487,57.487 65.487,57.487 65.487,57.487 C63.278,57.487 61.487,55.697 61.487,53.488 C61.487,53.488 61.487,35.487 61.487,35.487 C61.487,33.278 63.278,31.488 65.487,31.488 C65.487,31.488 83.487,31.488 83.487,31.488 C85.696,31.488 87.487,33.278 87.487,35.487 C87.487,35.487 87.487,53.488 87.487,53.488 C87.487,55.697 85.696,57.487 83.487,57.487 ZM83.487,27.488 C83.487,27.488 65.487,27.488 65.487,27.488 C63.278,27.488 61.487,25.697 61.487,23.488 C61.487,23.488 61.487,5.488 61.487,5.488 C61.487,3.278 63.278,1.488 65.487,1.488 C65.487,1.488 83.487,1.488 83.487,1.488 C85.696,1.488 87.487,3.278 87.487,5.488 C87.487,5.488 87.487,23.488 87.487,23.488 C87.487,25.697 85.696,27.488 83.487,27.488 ZM53.488,117.488 C53.488,117.488 35.488,117.488 35.488,117.488 C33.278,117.488 31.488,115.697 31.488,113.488 C31.488,113.488 31.488,95.488 31.488,95.488 C31.488,93.278 33.278,91.488 35.488,91.488 C35.488,91.488 53.488,91.488 53.488,91.488 C55.697,91.488 57.488,93.278 57.488,95.488 C57.488,95.488 57.488,113.488 57.488,113.488 C57.488,115.697 55.697,117.488 53.488,117.488 ZM53.488,87.488 C53.488,87.488 35.488,87.488 35.488,87.488 C33.278,87.488 31.488,85.697 31.488,83.488 C31.488,83.488 31.488,65.488 31.488,65.488 C31.488,63.278 33.278,61.487 35.488,61.487 C35.488,61.487 53.488,61.487 53.488,61.487 C55.697,61.487 57.488,63.278 57.488,65.488 C57.488,65.488 57.488,83.488 57.488,83.488 C57.488,85.697 55.697,87.488 53.488,87.488 ZM53.488,57.487 C53.488,57.487 35.488,57.487 35.488,57.487 C33.278,57.487 31.488,55.697 31.488,53.488 C31.488,53.488 31.488,35.487 31.488,35.487 C31.488,33.278 33.278,31.488 35.488,31.488 C35.488,31.488 53.488,31.488 53.488,31.488 C55.697,31.488 57.488,33.278 57.488,35.487 C57.488,35.487 57.488,53.488 57.488,53.488 C57.488,55.697 55.697,57.487 53.488,57.487 ZM53.488,27.488 C53.488,27.488 35.488,27.488 35.488,27.488 C33.278,27.488 31.488,25.697 31.488,23.488 C31.488,23.488 31.488,5.488 31.488,5.488 C31.488,3.278 33.278,1.488 35.488,1.488 C35.488,1.488 53.488,1.488 53.488,1.488 C55.697,1.488 57.488,3.278 57.488,5.488 C57.488,5.488 57.488,23.488 57.488,23.488 C57.488,25.697 55.697,27.488 53.488,27.488 ZM23.487,87.488 C23.487,87.488 5.488,87.488 5.488,87.488 C3.278,87.488 1.487,85.697 1.487,83.488 C1.487,83.488 1.487,65.488 1.487,65.488 C1.487,63.278 3.278,61.487 5.488,61.487 C5.488,61.487 23.487,61.487 23.487,61.487 C25.697,61.487 27.487,63.278 27.487,65.488 C27.487,65.488 27.487,83.488 27.487,83.488 C27.487,85.697 25.697,87.488 23.487,87.488 ZM23.487,57.487 C23.487,57.487 5.488,57.487 5.488,57.487 C3.278,57.487 1.487,55.697 1.487,53.488 C1.487,53.488 1.487,35.487 1.487,35.487 C1.487,33.278 3.278,31.488 5.488,31.488 C5.488,31.488 23.487,31.488 23.487,31.488 C25.697,31.488 27.487,33.278 27.487,35.487 C27.487,35.487 27.487,53.488 27.487,53.488 C27.487,55.697 25.697,57.487 23.487,57.487 ZM23.487,27.488 C23.487,27.488 5.488,27.488 5.488,27.488 C3.278,27.488 1.487,25.697 1.487,23.488 C1.487,23.488 1.487,5.488 1.487,5.488 C1.487,3.278 3.278,1.488 5.488,1.488 C5.488,1.488 23.487,1.488 23.487,1.488 C25.697,1.488 27.487,3.278 27.487,5.488 C27.487,5.488 27.487,23.488 27.487,23.488 C27.487,25.697 25.697,27.488 23.487,27.488 Z" id="path-1" class="cls-2" fill-rule="evenodd"/>
</svg>
