<svg xmlns="http://www.w3.org/2000/svg" xmlns:xlink="http://www.w3.org/1999/xlink" preserveAspectRatio="xMidYMid" width="169" height="118" viewBox="0 0 169 118">
  <defs>
    <style>

      .cls-3 {
        stroke: #979797;
        stroke-linecap: round;
        stroke-linejoin: round;
        stroke-width: 2px;
        fill: none;
      }
    </style>
  </defs>
  <g id="idle">
    <path d="M117.946,77.989 C117.946,77.989 58.021,77.989 58.021,77.989 C58.021,77.989 41.015,95.002 41.015,95.002 C41.015,95.002 24.009,77.989 24.009,77.989 C24.009,77.989 21.060,77.989 21.060,77.989 C9.989,77.989 1.014,69.178 1.014,58.086 C1.014,58.086 1.014,21.083 1.014,21.083 C1.014,9.991 9.989,0.998 21.060,0.998 C21.060,0.998 116.874,0.998 116.874,0.998 C127.945,0.998 137.991,9.991 137.991,21.083 C137.991,21.083 137.991,57.905 137.991,57.905 C137.991,68.997 129.017,77.989 117.946,77.989 Z" id="path-1" class="cls-3" fill-rule="evenodd"/>
    <path d="M148.000,24.000 C148.000,24.000 151.387,24.005 151.387,24.005 C159.999,24.005 168.000,32.395 168.000,40.965 C168.000,40.965 168.000,84.414 168.000,84.414 C168.000,92.984 159.612,100.000 151.000,100.000 C151.000,100.000 141.000,100.000 141.000,100.000 C141.000,100.000 124.807,117.001 124.807,117.001 C124.807,117.001 108.000,100.000 108.000,100.000 C108.000,100.000 81.000,100.000 81.000,100.000 C72.388,100.000 65.000,95.570 65.000,87.000 " id="path-2" class="cls-3" fill-rule="evenodd"/>
  </g>
</svg>
