<svg xmlns="http://www.w3.org/2000/svg" xmlns:xlink="http://www.w3.org/1999/xlink" preserveAspectRatio="xMidYMid" width="107" height="118" viewBox="0 0 107 118">
  <defs>
    <style>

      .cls-3 {
        stroke: #979797;
        stroke-width: 2px;
        fill: none;
      }

      .cls-5 {
        fill: #979797;
      }
    </style>
  </defs>
  <g id="idle">
    <path d="M10.000,94.062 C10.000,94.062 10.000,111.000 10.000,111.000 C10.000,114.661 13.303,117.001 16.985,117.001 C16.985,117.001 100.318,117.001 100.318,117.001 C104.000,117.001 106.985,114.033 106.985,110.372 C106.985,110.372 106.985,7.627 106.985,7.627 C106.985,3.966 104.000,0.998 100.318,0.998 C100.318,0.998 16.985,0.998 16.985,0.998 C13.303,0.998 10.000,3.339 10.000,7.000 C10.000,7.000 10.000,24.062 10.000,24.062 " id="path-1" class="cls-3" fill-rule="evenodd"/>
    <path d="M34.250,85.653 C34.355,86.435 34.971,87.015 35.694,87.015 C35.694,87.015 82.305,87.015 82.305,87.015 C83.029,87.015 83.644,86.434 83.750,85.653 C83.821,85.107 85.458,74.404 79.270,66.616 C76.313,62.896 72.107,61.009 66.770,61.009 C73.333,61.009 51.234,61.009 51.234,61.009 C51.234,61.009 41.689,62.896 38.734,66.616 C32.542,74.406 34.178,85.108 34.250,85.653 ZM74.006,41.991 C74.006,33.716 67.296,26.986 59.049,26.986 C50.802,26.986 43.990,34.041 43.990,42.287 C43.990,50.535 50.802,56.999 59.049,56.999 C67.296,56.999 74.006,50.266 74.006,41.991 Z" id="path-2" class="cls-3" fill-rule="evenodd"/>
    <path d="M15.500,90.000 C15.500,90.000 0.500,90.000 0.500,90.000 C0.224,90.000 -0.000,89.776 -0.000,89.500 C-0.000,89.500 -0.000,87.500 -0.000,87.500 C-0.000,87.224 0.224,87.000 0.500,87.000 C0.500,87.000 15.500,87.000 15.500,87.000 C15.776,87.000 16.000,87.224 16.000,87.500 C16.000,87.500 16.000,89.500 16.000,89.500 C16.000,89.776 15.776,90.000 15.500,90.000 ZM15.500,70.000 C15.500,70.000 0.500,70.000 0.500,70.000 C0.224,70.000 -0.000,69.776 -0.000,69.500 C-0.000,69.500 -0.000,67.500 -0.000,67.500 C-0.000,67.224 0.224,67.000 0.500,67.000 C0.500,67.000 15.500,67.000 15.500,67.000 C15.776,67.000 16.000,67.224 16.000,67.500 C16.000,67.500 16.000,69.500 16.000,69.500 C16.000,69.776 15.776,70.000 15.500,70.000 ZM15.500,50.000 C15.500,50.000 0.500,50.000 0.500,50.000 C0.224,50.000 -0.000,49.776 -0.000,49.500 C-0.000,49.500 -0.000,47.500 -0.000,47.500 C-0.000,47.224 0.224,47.000 0.500,47.000 C0.500,47.000 15.500,47.000 15.500,47.000 C15.776,47.000 16.000,47.224 16.000,47.500 C16.000,47.500 16.000,49.500 16.000,49.500 C16.000,49.776 15.776,50.000 15.500,50.000 ZM15.500,30.000 C15.500,30.000 0.500,30.000 0.500,30.000 C0.224,30.000 -0.000,29.776 -0.000,29.500 C-0.000,29.500 -0.000,27.500 -0.000,27.500 C-0.000,27.224 0.224,27.000 0.500,27.000 C0.500,27.000 15.500,27.000 15.500,27.000 C15.776,27.000 16.000,27.224 16.000,27.500 C16.000,27.500 16.000,29.500 16.000,29.500 C16.000,29.776 15.776,30.000 15.500,30.000 Z" id="path-3" class="cls-5" fill-rule="evenodd"/>
  </g>
</svg>
