<svg xmlns="http://www.w3.org/2000/svg" xmlns:xlink="http://www.w3.org/1999/xlink" preserveAspectRatio="xMidYMid" width="100" height="84" viewBox="0 0 100 84">
  <defs>
    <style>

      .cls-2 {
        fill: #979797;
      }
    </style>
  </defs>
  <path d="M96.000,82.993 C96.000,82.993 4.000,82.993 4.000,82.993 C1.791,82.993 -0.000,81.202 -0.000,78.993 C-0.000,78.993 -0.000,69.993 -0.000,69.993 C-0.000,67.784 1.791,65.993 4.000,65.993 C4.000,65.993 96.000,65.993 96.000,65.993 C98.209,65.993 100.000,67.784 100.000,69.993 C100.000,69.993 100.000,78.993 100.000,78.993 C100.000,81.202 98.209,82.993 96.000,82.993 ZM96.000,49.993 C96.000,49.993 4.000,49.993 4.000,49.993 C1.791,49.993 -0.000,48.202 -0.000,45.993 C-0.000,45.993 -0.000,36.993 -0.000,36.993 C-0.000,34.784 1.791,32.993 4.000,32.993 C4.000,32.993 96.000,32.993 96.000,32.993 C98.209,32.993 100.000,34.784 100.000,36.993 C100.000,36.993 100.000,45.993 100.000,45.993 C100.000,48.202 98.209,49.993 96.000,49.993 ZM96.000,16.993 C96.000,16.993 4.000,16.993 4.000,16.993 C1.791,16.993 -0.000,15.202 -0.000,12.993 C-0.000,12.993 -0.000,3.993 -0.000,3.993 C-0.000,1.784 1.791,-0.007 4.000,-0.007 C4.000,-0.007 96.000,-0.007 96.000,-0.007 C98.209,-0.007 100.000,1.784 100.000,3.993 C100.000,3.993 100.000,12.993 100.000,12.993 C100.000,15.202 98.209,16.993 96.000,16.993 Z" id="path-1" class="cls-2" fill-rule="evenodd"/>
</svg>
