<svg xmlns="http://www.w3.org/2000/svg" xmlns:xlink="http://www.w3.org/1999/xlink" preserveAspectRatio="xMidYMid" width="150" height="116" viewBox="0 0 150 116">
  <defs>
    <style>

      .cls-2 {
        fill: #003a4f;
      }
    </style>
  </defs>
  <path d="M130.000,66.000 C129.996,66.000 129.993,65.999 129.989,65.999 C129.989,65.999 129.989,66.002 129.989,66.002 C129.989,66.002 73.989,66.002 73.989,66.002 C73.989,66.002 73.989,65.950 73.989,65.950 C73.659,65.966 73.334,66.000 73.000,66.000 C61.954,66.000 53.000,57.046 53.000,46.000 C53.000,34.954 61.954,26.000 73.000,26.000 C84.046,26.000 93.000,34.954 93.000,46.000 C93.000,53.934 88.368,60.769 81.671,64.001 C81.671,64.001 121.329,64.001 121.329,64.001 C114.632,60.769 110.000,53.934 110.000,46.000 C110.000,34.954 118.954,26.000 130.000,26.000 C141.046,26.000 150.000,34.954 150.000,46.000 C150.000,57.046 141.046,66.000 130.000,66.000 ZM69.136,88.943 C69.869,89.216 70.479,89.352 70.967,89.352 C71.944,89.352 73.192,88.573 74.711,87.013 C76.229,85.452 81.336,78.390 82.963,76.829 C84.591,75.270 85.948,74.490 87.034,74.490 C87.793,74.490 88.566,74.681 89.352,75.063 C90.139,75.446 113.924,89.491 114.379,89.961 C115.613,91.237 114.742,95.221 113.809,97.477 C107.296,113.234 92.024,115.995 87.034,115.995 C85.569,115.995 62.746,117.216 29.940,85.814 C3.538,60.543 0.312,33.367 0.031,28.204 C-0.243,23.174 1.184,10.558 18.384,1.184 C20.515,0.022 24.740,-0.492 25.831,0.609 C26.315,1.098 40.751,25.068 41.131,25.862 C41.510,26.656 41.700,27.436 41.700,28.202 C41.700,29.297 40.927,30.666 39.380,32.309 C37.834,33.951 36.153,35.457 34.335,36.825 C32.517,38.194 30.835,39.644 29.288,41.177 C27.742,42.709 26.969,43.970 26.969,44.955 C27.074,47.511 29.150,56.669 44.966,70.691 C60.784,84.719 68.404,88.670 69.136,88.943 Z" id="path-1" class="cls-2" fill-rule="evenodd"/>
</svg>
