<svg xmlns="http://www.w3.org/2000/svg" xmlns:xlink="http://www.w3.org/1999/xlink" preserveAspectRatio="xMidYMid" width="167" height="116" viewBox="0 0 167 116">
  <defs>
    <style>

      .cls-3 {
        fill: #003a4f;
      }
    </style>
  </defs>
  <g id="preesd">
    <path d="M116.946,76.989 C116.946,76.989 57.021,76.989 57.021,76.989 C57.021,76.989 40.015,94.001 40.015,94.001 C40.015,94.001 23.009,76.989 23.009,76.989 C23.009,76.989 20.060,76.989 20.060,76.989 C8.989,76.989 0.014,68.178 0.014,57.086 C0.014,57.086 0.014,20.083 0.014,20.083 C0.014,8.991 8.989,-0.002 20.060,-0.002 C20.060,-0.002 115.874,-0.002 115.874,-0.002 C126.945,-0.002 136.991,8.991 136.991,20.083 C136.991,20.083 136.991,56.905 136.991,56.905 C136.991,67.997 128.017,76.989 116.946,76.989 Z" id="path-1" class="cls-3" fill-rule="evenodd"/>
    <path d="M150.000,99.000 C150.000,99.000 140.000,99.000 140.000,99.000 C140.000,99.000 123.807,116.000 123.807,116.000 C123.807,116.000 107.000,99.000 107.000,99.000 C107.000,99.000 80.000,99.000 80.000,99.000 C71.388,99.000 64.000,94.570 64.000,86.000 C64.000,86.000 64.000,80.989 64.000,80.989 C64.000,80.989 120.946,80.989 120.946,80.989 C132.016,80.989 140.991,71.997 140.991,60.904 C140.991,60.904 140.991,23.004 140.991,23.004 C140.991,23.004 150.387,23.005 150.387,23.005 C158.999,23.005 167.000,31.395 167.000,39.965 C167.000,39.965 167.000,83.414 167.000,83.414 C167.000,91.984 158.612,99.000 150.000,99.000 Z" id="path-2" class="cls-3" fill-rule="evenodd"/>
  </g>
</svg>
