<svg xmlns="http://www.w3.org/2000/svg" xmlns:xlink="http://www.w3.org/1999/xlink" preserveAspectRatio="xMidYMid" width="152" height="118" viewBox="0 0 152 118">
  <defs>
    <style>

      .cls-2 {
        stroke: #979797;
        stroke-width: 2px;
        fill: none;
      }
    </style>
  </defs>
  <path d="M131.000,67.000 C130.996,67.000 130.993,66.999 130.989,66.999 C130.989,66.999 130.989,67.003 130.989,67.003 C130.989,67.003 74.989,67.003 74.989,67.003 C74.989,67.003 74.989,66.950 74.989,66.950 C74.659,66.966 74.334,67.000 74.000,67.000 C62.954,67.000 54.000,58.046 54.000,47.000 C54.000,35.954 62.954,27.000 74.000,27.000 C85.046,27.000 94.000,35.954 94.000,47.000 C94.000,54.934 89.368,61.769 82.671,65.001 C82.671,65.001 122.329,65.001 122.329,65.001 C115.632,61.769 111.000,54.934 111.000,47.000 C111.000,35.954 119.954,27.000 131.000,27.000 C142.046,27.000 151.000,35.954 151.000,47.000 C151.000,58.046 142.046,67.000 131.000,67.000 ZM70.136,89.943 C70.869,90.217 71.479,90.352 71.967,90.352 C72.944,90.352 74.192,89.573 75.711,88.013 C77.229,86.452 82.336,79.390 83.963,77.828 C85.591,76.270 86.948,75.490 88.034,75.490 C88.793,75.490 89.566,75.681 90.352,76.063 C91.139,76.446 114.924,90.491 115.379,90.961 C116.613,92.237 115.742,96.221 114.809,98.477 C108.296,114.234 93.024,116.995 88.034,116.995 C86.569,116.995 63.746,118.216 30.940,86.815 C4.538,61.543 1.312,34.367 1.031,29.204 C0.757,24.174 2.184,11.558 19.384,2.184 C21.515,1.022 25.740,0.508 26.831,1.609 C27.315,2.098 41.751,26.068 42.131,26.862 C42.510,27.656 42.700,28.437 42.700,29.202 C42.700,30.297 41.927,31.666 40.380,33.309 C38.834,34.951 37.153,36.457 35.335,37.825 C33.517,39.194 31.835,40.644 30.288,42.177 C28.742,43.709 27.969,44.970 27.969,45.955 C28.074,48.511 30.150,57.669 45.966,71.692 C61.784,85.719 69.404,89.670 70.136,89.943 Z" id="path-1" class="cls-2" fill-rule="evenodd"/>
</svg>
