<svg xmlns="http://www.w3.org/2000/svg" xmlns:xlink="http://www.w3.org/1999/xlink" preserveAspectRatio="xMidYMid" width="106" height="116" viewBox="0 0 106 116">
  <defs>
    <style>

      .cls-3 {
        fill: #003a4f;
      }
    </style>
  </defs>
  <g id="-preesed-">
    <path d="M99.318,116.001 C99.318,116.001 15.985,116.001 15.985,116.001 C12.303,116.001 9.000,113.661 9.000,110.000 C9.000,110.000 9.000,93.000 9.000,93.000 C9.000,93.000 20.000,93.000 20.000,93.000 C20.000,93.000 20.000,83.000 20.000,83.000 C20.000,83.000 9.000,83.000 9.000,83.000 C9.000,83.000 9.000,73.000 9.000,73.000 C9.000,73.000 20.000,73.000 20.000,73.000 C20.000,73.000 20.000,63.000 20.000,63.000 C20.000,63.000 9.000,63.000 9.000,63.000 C9.000,63.000 9.000,53.000 9.000,53.000 C9.000,53.000 20.000,53.000 20.000,53.000 C20.000,53.000 20.000,43.000 20.000,43.000 C20.000,43.000 9.000,43.000 9.000,43.000 C9.000,43.000 9.000,33.000 9.000,33.000 C9.000,33.000 20.000,33.000 20.000,33.000 C20.000,33.000 20.000,23.000 20.000,23.000 C20.000,23.000 9.000,23.003 9.000,23.003 C9.000,23.003 9.000,6.000 9.000,6.000 C9.000,2.339 12.303,-0.002 15.985,-0.002 C15.985,-0.002 99.318,-0.002 99.318,-0.002 C103.000,-0.002 105.985,2.966 105.985,6.627 C105.985,6.627 105.985,109.372 105.985,109.372 C105.985,113.033 103.000,116.001 99.318,116.001 ZM58.049,25.986 C49.802,25.986 42.990,33.041 42.990,41.287 C42.990,49.535 49.802,55.999 58.049,55.999 C66.296,55.999 73.006,49.266 73.006,40.991 C73.006,32.716 66.296,25.986 58.049,25.986 ZM78.270,65.616 C75.313,61.895 71.107,60.009 65.770,60.009 C61.924,60.009 50.234,60.009 50.234,60.009 C50.234,60.009 40.689,61.895 37.734,65.616 C31.542,73.406 33.178,84.108 33.250,84.653 C33.355,85.435 33.971,86.015 34.694,86.015 C34.694,86.015 81.305,86.015 81.305,86.015 C82.029,86.015 82.644,85.434 82.750,84.653 C82.821,84.107 84.458,73.404 78.270,65.616 Z" id="path-1" class="cls-3" fill-rule="evenodd"/>
    <path d="M15.500,90.000 C15.500,90.000 0.500,90.000 0.500,90.000 C0.224,90.000 -0.000,89.776 -0.000,89.500 C-0.000,89.500 -0.000,87.500 -0.000,87.500 C-0.000,87.224 0.224,87.000 0.500,87.000 C0.500,87.000 15.500,87.000 15.500,87.000 C15.776,87.000 16.000,87.224 16.000,87.500 C16.000,87.500 16.000,89.500 16.000,89.500 C16.000,89.776 15.776,90.000 15.500,90.000 ZM15.500,70.000 C15.500,70.000 0.500,70.000 0.500,70.000 C0.224,70.000 -0.000,69.776 -0.000,69.500 C-0.000,69.500 -0.000,67.500 -0.000,67.500 C-0.000,67.224 0.224,67.000 0.500,67.000 C0.500,67.000 15.500,67.000 15.500,67.000 C15.776,67.000 16.000,67.224 16.000,67.500 C16.000,67.500 16.000,69.500 16.000,69.500 C16.000,69.776 15.776,70.000 15.500,70.000 ZM15.500,50.000 C15.500,50.000 0.500,50.000 0.500,50.000 C0.224,50.000 -0.000,49.776 -0.000,49.500 C-0.000,49.500 -0.000,47.500 -0.000,47.500 C-0.000,47.224 0.224,47.000 0.500,47.000 C0.500,47.000 15.500,47.000 15.500,47.000 C15.776,47.000 16.000,47.224 16.000,47.500 C16.000,47.500 16.000,49.500 16.000,49.500 C16.000,49.776 15.776,50.000 15.500,50.000 ZM15.500,30.000 C15.500,30.000 0.500,30.000 0.500,30.000 C0.224,30.000 -0.000,29.776 -0.000,29.500 C-0.000,29.500 -0.000,27.500 -0.000,27.500 C-0.000,27.224 0.224,27.000 0.500,27.000 C0.500,27.000 15.500,27.000 15.500,27.000 C15.776,27.000 16.000,27.224 16.000,27.500 C16.000,27.500 16.000,29.500 16.000,29.500 C16.000,29.776 15.776,30.000 15.500,30.000 Z" id="path-2" class="cls-3" fill-rule="evenodd"/>
  </g>
</svg>
