<svg xmlns="http://www.w3.org/2000/svg" xmlns:xlink="http://www.w3.org/1999/xlink" preserveAspectRatio="xMidYMid" width="44" height="44" viewBox="0 0 44 44">
  <defs>
    <style>

      .cls-3 {
        fill: #00688f;
      }

      .cls-4 {
        fill: #b3b3b3;
      }
    </style>
  </defs>
  <g id="logoff">
    <circle id="circle-1" class="cls-3" cx="22" cy="22" r="22"/>
    <path d="M21.082,40.683 C10.764,40.176 2.812,31.400 3.320,21.082 C3.828,10.765 12.603,2.813 22.921,3.321 C33.238,3.828 41.190,12.604 40.683,22.922 C40.175,33.239 31.399,41.191 21.082,40.683 ZM22.692,7.978 C14.946,7.597 8.358,13.566 7.977,21.312 C7.596,29.057 13.566,35.645 21.311,36.026 C29.056,36.408 35.644,30.438 36.025,22.692 C36.407,14.947 30.437,8.359 22.692,7.978 ZM21.502,32.137 C15.905,31.862 11.591,27.100 11.866,21.503 C12.142,15.906 16.903,11.592 22.500,11.867 C28.097,12.143 32.412,16.903 32.136,22.501 C31.861,28.098 27.100,32.412 21.502,32.137 Z" id="path-1" class="cls-4" fill-rule="evenodd"/>
  </g>
</svg>
