<svg xmlns="http://www.w3.org/2000/svg" xmlns:xlink="http://www.w3.org/1999/xlink" preserveAspectRatio="xMidYMid" width="152" height="152" viewBox="0 0 152 152">
  <defs>
    <style>

      .cls-3 {
        fill: #ffffff;
        stroke: #979797;
        stroke-linecap: round;
        stroke-width: 2px;
        mix-blend-mode: luminosity;
      }

      .cls-4 {
        stroke: #979797;
        stroke-width: 2px;
        fill: none;
      }
    </style>
  </defs>
  <g id="idle">
    <circle id="circle-1" class="cls-3" cx="76" cy="76" r="75"/>
    <path d="M100.000,112.000 C100.000,112.000 91.000,112.000 91.000,112.000 C87.686,112.000 85.000,109.314 85.000,106.000 C85.000,106.000 85.000,46.000 85.000,46.000 C85.000,42.686 87.686,40.000 91.000,40.000 C91.000,40.000 100.000,40.000 100.000,40.000 C103.314,40.000 106.000,42.686 106.000,46.000 C106.000,46.000 106.000,106.000 106.000,106.000 C106.000,109.314 103.314,112.000 100.000,112.000 ZM61.000,112.000 C61.000,112.000 52.000,112.000 52.000,112.000 C48.686,112.000 46.000,109.314 46.000,106.000 C46.000,106.000 46.000,46.000 46.000,46.000 C46.000,42.686 48.686,40.000 52.000,40.000 C52.000,40.000 61.000,40.000 61.000,40.000 C64.313,40.000 67.000,42.686 67.000,46.000 C67.000,46.000 67.000,106.000 67.000,106.000 C67.000,109.314 64.313,112.000 61.000,112.000 Z" id="path-1" class="cls-4" fill-rule="evenodd"/>
  </g>
</svg>
