<svg xmlns="http://www.w3.org/2000/svg" xmlns:xlink="http://www.w3.org/1999/xlink" preserveAspectRatio="xMidYMid" width="150" height="150" viewBox="0 0 150 150">
  <defs>
    <style>

      .cls-3 {
        fill: #ca3636;
      }

      .cls-4 {
        fill: #ffffff;
      }
    </style>
  </defs>
  <g id="pressed">
    <circle id="circle-1" class="cls-3" cx="75" cy="75" r="75"/>
    <path d="M16.983,96.939 C11.439,82.892 19.079,71.459 22.121,68.291 C23.014,67.360 36.186,52.102 75.141,51.024 C106.491,50.156 124.866,65.202 128.155,68.270 C131.358,71.261 138.106,80.102 133.284,96.919 C132.686,99.002 130.421,102.008 129.092,102.009 C128.501,102.009 105.230,96.097 104.519,95.838 C103.809,95.581 103.221,95.210 102.759,94.728 C102.098,94.040 101.742,92.688 101.694,90.672 C101.644,88.658 101.760,86.643 102.042,84.628 C102.323,82.613 102.472,80.633 102.490,78.687 C102.507,76.742 102.217,75.458 101.622,74.838 C100.015,73.297 93.220,68.855 75.114,70.076 C57.004,71.296 49.974,73.649 49.363,73.942 C48.751,74.236 48.298,74.537 48.000,74.848 C47.405,75.468 47.114,76.750 47.130,78.696 C47.148,80.641 48.299,88.326 48.250,90.342 C48.199,92.355 47.843,93.708 47.181,94.398 C46.718,94.879 46.132,95.249 45.422,95.508 C44.711,95.767 21.735,102.034 21.174,102.028 C19.651,102.009 17.777,98.950 16.983,96.939 " id="path-1" class="cls-4" fill-rule="evenodd"/>
  </g>
</svg>
