<svg xmlns="http://www.w3.org/2000/svg" xmlns:xlink="http://www.w3.org/1999/xlink" preserveAspectRatio="xMidYMid" width="152" height="152" viewBox="0 0 152 152">
  <defs>
    <style>

      .cls-3 {
        fill: #ffffff;
        stroke: #979797;
        stroke-linecap: round;
        stroke-width: 2px;
      }

      .cls-4 {
        stroke: #979797;
        stroke-width: 2px;
        fill: none;
      }
    </style>
  </defs>
  <g id="idle">
    <circle id="circle-1" class="cls-3" cx="76" cy="76" r="75"/>
    <path d="M79.302,34.342 C77.653,33.645 75.794,34.021 74.515,35.324 C74.515,35.324 66.541,45.329 51.998,60.998 C51.998,60.998 39.999,60.998 39.999,60.998 C39.083,60.998 36.999,63.037 36.999,63.998 C36.999,63.998 36.999,87.998 36.999,87.998 C36.999,88.946 39.083,90.998 39.999,90.998 C39.999,90.998 51.998,90.998 51.998,90.998 C75.484,115.709 74.513,116.673 74.513,116.673 C75.384,117.522 76.525,117.996 77.651,117.996 C78.200,117.996 78.754,117.884 79.301,117.689 C80.923,116.951 82.004,115.308 82.004,113.512 C82.004,113.512 82.004,38.533 82.004,38.533 C82.004,36.687 80.924,35.058 79.302,34.342 " id="path-1" class="cls-4" fill-rule="evenodd"/>
    <path d="M94.004,52.000 C97.873,58.015 100.003,66.012 100.003,74.517 C100.003,83.023 97.873,91.023 94.004,97.037 " id="path-2" class="cls-4" fill-rule="evenodd"/>
    <path d="M105.994,40.042 C113.745,49.251 118.015,61.496 118.015,74.518 C118.015,87.540 113.747,99.782 105.994,108.992 " id="path-3" class="cls-4" fill-rule="evenodd"/>
  </g>
</svg>
