<svg xmlns="http://www.w3.org/2000/svg" xmlns:xlink="http://www.w3.org/1999/xlink" preserveAspectRatio="xMidYMid" width="150" height="150" viewBox="0 0 150 150">
  <defs>
    <style>

      .cls-3 {
        fill: #00688f;
      }

      .cls-5 {
        fill: #ffffff;
      }
    </style>
  </defs>
  <g id="pressed">
    <circle id="circle-1" class="cls-3" cx="75" cy="75" r="75"/>
    <g id="bubble">
      <path d="M98.998,89.998 C98.998,89.998 58.488,89.998 58.488,89.998 C58.488,89.998 46.486,102.040 46.486,102.040 C46.486,102.040 33.852,89.998 33.852,89.998 C33.852,89.998 32.999,89.998 32.999,89.998 C25.614,89.998 20.980,82.533 20.980,75.075 C20.980,75.075 20.980,49.520 20.980,49.520 C20.980,42.063 26.967,36.017 34.351,36.017 C34.351,36.017 96.899,36.017 96.899,36.017 C104.283,36.017 110.985,42.063 110.985,49.520 C110.985,49.520 110.985,74.953 110.985,74.953 C110.985,82.411 106.383,89.998 98.998,89.998 Z" id="path-1" class="cls-5" fill-rule="evenodd"/>
      <path d="M119.999,107.998 C119.999,107.998 113.999,107.998 113.999,107.998 C113.999,107.998 101.999,116.998 101.999,116.998 C101.999,116.998 89.998,107.998 89.998,107.998 C89.998,107.998 71.998,107.998 71.998,107.998 C66.120,107.998 59.998,104.970 59.998,98.998 C59.998,98.998 59.998,95.998 59.998,95.998 C59.998,95.998 104.998,95.998 104.998,95.998 C112.383,95.998 116.985,88.411 116.985,80.953 C116.985,80.953 116.985,55.520 116.985,55.520 C116.985,55.005 116.946,54.498 116.884,53.998 C116.884,53.998 119.999,53.998 119.999,53.998 C125.877,53.998 131.848,59.094 131.848,65.066 C131.848,65.066 131.848,96.036 131.848,96.036 C131.848,102.008 125.877,107.998 119.999,107.998 Z" id="path-2" class="cls-5" fill-rule="evenodd"/>
    </g>
  </g>
</svg>
