<svg xmlns="http://www.w3.org/2000/svg" xmlns:xlink="http://www.w3.org/1999/xlink" preserveAspectRatio="xMidYMid" width="152" height="152" viewBox="0 0 152 152">
  <defs>
    <style>

      .cls-3 {
        fill: #ffffff;
        stroke: #979797;
        stroke-linecap: round;
        stroke-width: 2px;
      }

      .cls-5 {
        stroke: #979797;
        stroke-linecap: round;
        stroke-linejoin: round;
        stroke-width: 2px;
        fill: none;
      }
    </style>
  </defs>
  <g id="idle">
    <circle id="circle-1" class="cls-3" cx="76" cy="76" r="75"/>
    <g id="bubble">
      <path d="M99.998,90.998 C99.998,90.998 59.488,90.998 59.488,90.998 C59.488,90.998 47.486,103.040 47.486,103.040 C47.486,103.040 34.852,90.998 34.852,90.998 C34.852,90.998 33.999,90.998 33.999,90.998 C26.614,90.998 21.980,83.533 21.980,76.075 C21.980,76.075 21.980,50.520 21.980,50.520 C21.980,43.062 27.967,37.017 35.351,37.017 C35.351,37.017 97.899,37.017 97.899,37.017 C105.283,37.017 111.985,43.062 111.985,50.520 C111.985,50.520 111.985,75.953 111.985,75.953 C111.985,83.411 107.383,90.998 99.998,90.998 Z" id="path-1" class="cls-5" fill-rule="evenodd"/>
      <path d="M121.129,54.998 C127.021,54.998 133.005,60.095 133.005,66.066 C133.005,66.066 133.005,97.036 133.005,97.036 C133.005,103.008 127.021,108.998 121.129,108.998 C121.129,108.998 115.116,108.998 115.116,108.998 C115.116,108.998 103.090,117.998 103.090,117.998 C103.090,117.998 91.063,108.998 91.063,108.998 C91.063,108.998 73.024,108.998 73.024,108.998 C67.133,108.998 60.998,105.970 60.998,99.998 " id="path-2" class="cls-5" fill-rule="evenodd"/>
    </g>
  </g>
</svg>
