<svg xmlns="http://www.w3.org/2000/svg" xmlns:xlink="http://www.w3.org/1999/xlink" preserveAspectRatio="xMidYMid" width="150" height="150" viewBox="0 0 150 150">
  <defs>
    <style>

      .cls-3 {
        fill: #00688f;
      }

      .cls-4 {
        stroke: #ffffff;
        stroke-width: 2px;
        fill: none;
      }

      .cls-5 {
        fill: #ffffff;
      }
    </style>
  </defs>
  <g id="pressed">
    <circle id="circle-1" class="cls-3" cx="75" cy="75" r="75"/>
    <path d="M103.998,67.006 C103.998,67.006 103.998,76.007 103.998,76.007 C103.998,90.920 92.357,103.009 77.998,103.009 C63.639,103.009 51.998,90.920 51.998,76.007 C51.998,76.007 51.998,67.006 51.998,67.006 " id="path-1" class="cls-4" fill-rule="evenodd"/>
    <path d="M75.248,29.997 C75.248,29.997 78.748,29.997 78.748,29.997 C85.514,29.997 90.998,35.367 90.998,41.990 C90.998,41.990 90.998,80.005 90.998,80.005 C90.998,86.628 85.514,91.998 78.748,91.998 C78.748,91.998 75.248,91.998 75.248,91.998 C68.483,91.998 62.998,86.628 62.998,80.005 C62.998,80.005 62.998,41.990 62.998,41.990 C62.998,35.367 68.483,29.997 75.248,29.997 Z" id="path-2" class="cls-5" fill-rule="evenodd"/>
    <path d="M95.000,118.000 C95.000,118.000 79.000,118.000 79.000,118.000 C79.000,118.000 77.000,118.000 77.000,118.000 C77.000,118.000 61.000,118.000 61.000,118.000 C61.000,118.000 61.000,116.000 61.000,116.000 C61.000,116.000 77.000,116.000 77.000,116.000 C77.000,116.000 77.000,101.000 77.000,101.000 C77.000,101.000 79.000,101.000 79.000,101.000 C79.000,101.000 79.000,116.000 79.000,116.000 C79.000,116.000 95.000,116.000 95.000,116.000 C95.000,116.000 95.000,118.000 95.000,118.000 Z" id="path-3" class="cls-4" fill-rule="evenodd"/>
  </g>
</svg>
