<svg xmlns="http://www.w3.org/2000/svg" xmlns:xlink="http://www.w3.org/1999/xlink" preserveAspectRatio="xMidYMid" width="152" height="152" viewBox="0 0 152 152">
  <defs>
    <style>

      .cls-3 {
        fill: #ffffff;
        stroke: #ca3636;
        stroke-linecap: round;
        stroke-width: 2px;
      }

      .cls-4 {
        stroke: #ca3636;
        stroke-width: 2px;
        fill: none;
      }
    </style>
  </defs>
  <g id="idle">
    <circle id="circle-1" class="cls-3" cx="76" cy="76" r="75"/>
    <path d="M17.983,97.939 C12.439,83.892 20.079,72.459 23.121,69.291 C24.014,68.360 37.186,53.102 76.141,52.024 C107.491,51.156 125.866,66.202 129.155,69.270 C132.358,72.260 139.106,81.102 134.284,97.918 C133.686,100.002 131.421,103.008 130.092,103.008 C129.501,103.009 106.230,97.097 105.519,96.839 C104.809,96.581 104.221,96.210 103.759,95.728 C103.098,95.040 102.743,93.688 102.694,91.672 C102.644,89.658 102.760,87.643 103.042,85.629 C103.323,83.613 103.472,81.633 103.490,79.687 C103.507,77.742 103.217,76.458 102.622,75.838 C101.015,74.297 94.220,69.855 76.115,71.076 C58.004,72.296 50.974,74.650 50.363,74.942 C49.751,75.236 49.298,75.537 49.000,75.847 C48.405,76.468 48.114,77.750 48.130,79.696 C48.148,81.641 49.299,89.326 49.250,91.342 C49.199,93.355 48.843,94.708 48.181,95.397 C47.718,95.879 47.132,96.249 46.422,96.508 C45.711,96.767 22.735,103.034 22.174,103.028 C20.652,103.009 18.777,99.950 17.983,97.939 " id="path-1" class="cls-4" fill-rule="evenodd"/>
  </g>
</svg>
