<svg xmlns="http://www.w3.org/2000/svg" xmlns:xlink="http://www.w3.org/1999/xlink" preserveAspectRatio="xMidYMid" width="150" height="150" viewBox="0 0 150 150">
  <defs>
    <style>

      .cls-3 {
        fill: #00688f;
      }

      .cls-4 {
        fill: #ffffff;
      }
    </style>
  </defs>
  <g id="hover">
    <circle id="circle-1" class="cls-3" cx="75" cy="75" r="75"/>
    <path d="M122.998,53.997 C122.998,53.997 116.998,53.997 116.998,53.997 C116.998,53.997 95.999,65.998 95.999,65.998 C95.999,65.998 95.999,50.998 95.999,50.998 C95.999,46.924 95.246,47.998 92.998,47.998 C92.998,47.998 26.998,47.998 26.998,47.998 C24.752,47.998 23.998,49.924 23.998,53.997 C23.998,53.997 23.998,101.998 23.998,101.998 C23.998,106.068 24.752,104.997 26.998,104.997 C26.998,104.997 92.998,104.997 92.998,104.997 C95.247,104.997 95.999,106.068 95.999,101.998 C95.999,101.998 95.999,86.997 95.999,86.997 C95.999,86.997 116.998,98.998 116.998,98.998 C116.998,98.998 122.998,98.998 122.998,98.998 C124.119,98.998 125.998,96.746 125.998,93.597 C125.998,93.597 125.998,59.395 125.998,59.395 C125.998,56.247 124.119,53.997 122.998,53.997 Z" id="path-1" class="cls-4" fill-rule="evenodd"/>
  </g>
</svg>
