<svg xmlns="http://www.w3.org/2000/svg" xmlns:xlink="http://www.w3.org/1999/xlink" preserveAspectRatio="xMidYMid" width="152" height="152" viewBox="0 0 152 152">
  <defs>
    <style>

      .cls-3 {
        fill: #ffffff;
        stroke: #979797;
        stroke-linecap: round;
        stroke-width: 2px;
      }

      .cls-4 {
        stroke: #979797;
        stroke-linecap: round;
        stroke-width: 3px;
        fill: none;
      }
    </style>
  </defs>
  <g id="idle">
    <circle id="circle-1" class="cls-3" cx="76" cy="76" r="75"/>
    <path d="M114.000,79.500 C114.000,79.500 79.500,79.500 79.500,79.500 C79.500,79.500 79.500,114.000 79.500,114.000 C79.500,114.828 78.828,115.500 78.000,115.500 C77.171,115.500 76.500,114.828 76.500,114.000 C76.500,114.000 76.500,79.500 76.500,79.500 C76.500,79.500 42.000,79.500 42.000,79.500 C41.171,79.500 40.500,78.828 40.500,78.000 C40.500,77.172 41.171,76.500 42.000,76.500 C42.000,76.500 76.500,76.500 76.500,76.500 C76.500,76.500 76.500,42.000 76.500,42.000 C76.500,41.171 77.171,40.500 78.000,40.500 C78.828,40.500 79.500,41.171 79.500,42.000 C79.500,42.000 79.500,76.500 79.500,76.500 C79.500,76.500 114.000,76.500 114.000,76.500 C114.828,76.500 115.500,77.172 115.500,78.000 C115.500,78.828 114.828,79.500 114.000,79.500 Z" id="path-1" class="cls-4" fill-rule="evenodd"/>
  </g>
</svg>
