<svg xmlns="http://www.w3.org/2000/svg" xmlns:xlink="http://www.w3.org/1999/xlink" preserveAspectRatio="xMidYMid" width="152" height="152" viewBox="0 0 152 152">
  <defs>
    <style>

      .cls-3 {
        fill: #ffffff;
        stroke: #979797;
        stroke-linecap: round;
        stroke-width: 2px;
      }

      .cls-5 {
        stroke: #979797;
        stroke-width: 2px;
        fill: none;
      }

      .cls-6 {
        stroke: #979797;
        stroke-linecap: round;
        stroke-linejoin: round;
        stroke-width: 2px;
        fill: none;
      }

      .cls-7 {
        stroke: #979797;
        stroke-linejoin: round;
        stroke-width: 2px;
        fill: none;
      }
    </style>
  </defs>
  <g id="idle">
    <circle id="circle-1" class="cls-3" cx="76" cy="76" r="75"/>
    <g id="headphone">
      <path d="M113.760,120.000 C113.147,120.000 108.532,120.000 107.920,120.000 C105.974,120.000 105.001,119.091 105.001,117.272 C105.001,111.395 105.001,97.673 105.001,92.730 C105.001,90.912 105.974,90.003 107.920,90.003 C108.362,90.003 113.317,90.003 113.760,90.003 C114.538,90.003 119.013,92.306 119.013,104.907 C119.013,117.756 114.538,120.000 113.760,120.000 ZM45.080,120.000 C44.467,120.000 39.853,120.000 39.240,120.000 C38.462,120.000 33.987,117.756 33.987,104.907 C33.987,92.306 38.462,90.003 39.240,90.003 C39.682,90.003 44.638,90.003 45.080,90.003 C47.025,90.003 47.999,90.912 47.999,92.730 C47.999,97.673 47.999,111.395 47.999,117.272 C47.999,119.091 47.025,120.000 45.080,120.000 Z" id="path-1" class="cls-5" fill-rule="evenodd"/>
      <path d="M29.000,105.295 C29.000,105.295 29.000,80.087 29.000,80.087 C29.000,53.845 50.253,33.004 76.500,33.004 C102.747,33.004 124.000,53.845 124.000,80.087 C124.000,80.087 124.000,105.295 124.000,105.295 " id="path-2" class="cls-6" fill-rule="evenodd"/>
    </g>
    <path d="M90.874,96.321 C90.874,96.321 73.966,113.871 73.966,113.871 C73.966,113.871 73.966,91.605 73.966,91.605 C73.966,91.605 66.183,99.545 66.183,99.545 C66.183,99.545 63.102,96.317 63.102,96.317 C63.102,96.317 73.908,84.994 73.908,84.994 C73.908,84.994 63.102,73.672 63.102,73.672 C63.102,73.672 66.183,70.444 66.183,70.444 C66.183,70.444 73.966,78.385 73.966,78.385 C73.966,78.385 73.966,56.120 73.966,56.120 C73.966,56.120 90.874,73.667 90.874,73.667 C90.874,73.667 80.400,84.994 80.400,84.994 C80.400,84.994 90.874,96.321 90.874,96.321 ZM78.011,104.130 C78.011,104.130 85.303,96.317 85.303,96.317 C85.303,96.317 78.011,88.822 78.011,88.822 C78.011,88.822 78.011,104.130 78.011,104.130 ZM85.303,73.672 C85.303,73.672 78.011,66.556 78.011,66.556 C78.011,66.556 78.011,81.168 78.011,81.168 C78.011,81.168 85.303,73.672 85.303,73.672 Z" id="path-3" class="cls-7" fill-rule="evenodd"/>
  </g>
</svg>
