<svg xmlns="http://www.w3.org/2000/svg" xmlns:xlink="http://www.w3.org/1999/xlink" preserveAspectRatio="xMidYMid" width="152" height="152" viewBox="0 0 152 152">
  <defs>
    <style>

      .cls-3 {
        fill: #ffffff;
        stroke: #979797;
        stroke-linecap: round;
        stroke-width: 2px;
      }

      .cls-4 {
        stroke: #979797;
        stroke-width: 2px;
        fill: none;
      }
    </style>
  </defs>
  <g id="idle">
    <circle id="circle-1" class="cls-3" cx="76" cy="76" r="75"/>
    <path d="M123.998,54.998 C123.998,54.998 117.998,54.998 117.998,54.998 C117.998,54.998 96.999,66.997 96.999,66.997 C96.999,66.997 96.999,51.997 96.999,51.997 C96.999,47.924 96.246,48.998 93.998,48.998 C93.998,48.998 27.998,48.998 27.998,48.998 C25.752,48.998 24.998,50.924 24.998,54.998 C24.998,54.998 24.998,102.997 24.998,102.997 C24.998,107.068 25.752,105.997 27.998,105.997 C27.998,105.997 93.998,105.997 93.998,105.997 C96.247,105.997 96.999,107.068 96.999,102.997 C96.999,102.997 96.999,87.997 96.999,87.997 C96.999,87.997 117.998,99.998 117.998,99.998 C117.998,99.998 123.998,99.998 123.998,99.998 C125.119,99.998 126.998,97.746 126.998,94.597 C126.998,94.597 126.998,60.395 126.998,60.395 C126.998,57.247 125.119,54.998 123.998,54.998 Z" id="path-1" class="cls-4" fill-rule="evenodd"/>
  </g>
</svg>
