<svg xmlns="http://www.w3.org/2000/svg" xmlns:xlink="http://www.w3.org/1999/xlink" preserveAspectRatio="xMidYMid" width="150" height="150" viewBox="0 0 150 150">
  <defs>
    <style>

      .cls-3 {
        fill: #38b42b;
      }

      .cls-4 {
        fill: #ffffff;
      }
    </style>
  </defs>
  <g id="pressed">
    <circle id="circle-1" class="cls-3" cx="75" cy="75" r="75"/>
    <path d="M124.867,108.614 C118.855,122.466 105.368,125.148 100.977,125.238 C99.688,125.264 79.584,126.739 51.276,99.957 C28.496,78.402 26.141,54.771 25.986,50.275 C25.835,45.896 27.315,34.872 42.617,26.391 C44.513,25.340 48.240,24.816 49.180,25.756 C49.597,26.173 61.872,46.809 62.192,47.494 C62.512,48.179 62.665,48.856 62.652,49.524 C62.632,50.478 61.928,51.685 60.537,53.145 C59.147,54.605 57.641,55.947 56.017,57.173 C54.393,58.399 52.888,59.693 51.499,61.057 C50.111,62.421 49.409,63.534 49.391,64.392 C49.438,66.619 51.102,74.564 64.768,86.503 C78.437,98.446 85.072,101.753 85.710,101.979 C86.351,102.204 86.884,102.311 87.314,102.302 C88.174,102.284 89.286,101.583 90.651,100.196 C92.014,98.808 96.634,92.560 98.094,91.169 C99.553,89.781 100.761,89.077 101.717,89.057 C102.385,89.044 103.061,89.196 103.746,89.516 C104.432,89.836 125.111,101.651 125.502,102.052 C126.566,103.142 125.728,106.630 124.867,108.614 " id="path-1" class="cls-4" fill-rule="evenodd"/>
  </g>
</svg>
