<svg xmlns="http://www.w3.org/2000/svg" xmlns:xlink="http://www.w3.org/1999/xlink" preserveAspectRatio="xMidYMid" width="150" height="150" viewBox="0 0 150 150">
  <defs>
    <style>

      .cls-3 {
        fill: #00688f;
      }

      .cls-4 {
        fill: #ffffff;
      }

      .cls-5 {
        stroke: #ffffff;
        stroke-width: 3px;
        fill: none;
      }
    </style>
  </defs>
  <g id="pressed">
    <circle id="circle-1" class="cls-3" cx="75" cy="75" r="75"/>
    <path d="M78.302,33.342 C76.653,32.645 74.794,33.021 73.515,34.324 C73.515,34.324 65.541,44.329 50.999,59.998 C50.999,59.998 38.999,59.998 38.999,59.998 C38.082,59.998 35.999,62.037 35.999,62.998 C35.999,62.998 35.999,86.998 35.999,86.998 C35.999,87.946 38.082,89.998 38.999,89.998 C38.999,89.998 50.999,89.998 50.999,89.998 C74.484,114.709 73.513,115.673 73.513,115.673 C74.384,116.522 75.525,116.995 76.651,116.995 C77.200,116.995 77.754,116.884 78.301,116.689 C79.923,115.951 81.004,114.308 81.004,112.512 C81.004,112.512 81.004,37.533 81.004,37.533 C81.004,35.687 79.924,34.059 78.302,33.342 " id="path-1" class="cls-4" fill-rule="evenodd"/>
    <path d="M94.504,52.500 C98.373,58.515 100.503,66.512 100.503,75.018 C100.503,83.523 98.373,91.522 94.504,97.537 " id="path-2" class="cls-5" fill-rule="evenodd"/>
    <path d="M106.494,40.542 C114.245,49.751 118.515,61.996 118.515,75.018 C118.515,88.040 114.247,100.282 106.494,109.492 " id="path-3" class="cls-5" fill-rule="evenodd"/>
  </g>
</svg>
