<svg xmlns="http://www.w3.org/2000/svg" xmlns:xlink="http://www.w3.org/1999/xlink" preserveAspectRatio="xMidYMid" width="150" height="150" viewBox="0 0 150 150">
  <defs>
    <style>

      .cls-3 {
        fill: #00688f;
      }

      .cls-4 {
        fill: #ffffff;
      }
    </style>
  </defs>
  <g id="pressed">
    <circle id="circle-1" class="cls-3" cx="75" cy="75" r="75"/>
    <path d="M124.867,108.614 C118.855,122.466 105.368,125.148 100.977,125.238 C99.688,125.264 79.584,126.739 51.277,99.957 C28.495,78.402 26.141,54.771 25.986,50.275 C25.835,45.896 27.316,34.872 42.617,26.391 C44.513,25.340 48.239,24.816 49.180,25.756 C49.597,26.173 61.872,46.809 62.192,47.494 C62.512,48.179 62.665,48.856 62.652,49.524 C62.633,50.478 61.928,51.685 60.537,53.145 C59.147,54.605 57.641,55.947 56.017,57.173 C54.393,58.399 52.888,59.693 51.499,61.057 C50.111,62.421 49.409,63.534 49.391,64.392 C49.438,66.619 51.102,74.564 64.768,86.503 C78.437,98.446 85.071,101.753 85.710,101.979 C86.351,102.204 86.884,102.311 87.314,102.302 C88.174,102.284 89.286,101.583 90.651,100.196 C92.014,98.808 96.633,92.560 98.094,91.169 C99.554,89.781 100.761,89.077 101.717,89.057 C102.385,89.044 103.061,89.196 103.746,89.516 C104.432,89.836 125.111,101.651 125.503,102.052 C126.566,103.142 125.728,106.630 124.867,108.614 " id="path-1" class="cls-4" fill-rule="evenodd"/>
    <path d="M122.899,46.732 C123.088,47.566 123.089,48.429 122.900,49.264 C122.900,49.264 122.900,49.264 122.900,49.264 C122.616,50.882 121.659,52.259 120.321,53.105 C120.321,53.105 106.143,67.283 106.143,67.283 C103.906,69.520 100.280,69.520 98.043,67.283 C98.043,67.283 97.657,66.898 97.657,66.898 C95.421,64.661 95.421,61.035 97.657,58.798 C97.657,58.798 102.455,54.000 102.455,54.000 C102.455,54.000 74.727,54.000 74.727,54.000 C71.564,54.000 69.000,51.436 69.000,48.273 C69.000,48.273 69.000,47.727 69.000,47.727 C69.000,44.564 71.564,42.000 74.727,42.000 C74.727,42.000 102.458,42.000 102.458,42.000 C102.458,42.000 97.657,37.199 97.657,37.199 C95.421,34.963 95.421,31.336 97.657,29.099 C97.657,29.099 98.043,28.714 98.043,28.714 C100.280,26.477 103.906,26.477 106.143,28.714 C106.143,28.714 120.381,42.951 120.381,42.951 C121.682,43.795 122.620,45.142 122.899,46.732 Z" id="path-2" class="cls-4" fill-rule="evenodd"/>
  </g>
</svg>
