<svg xmlns="http://www.w3.org/2000/svg" xmlns:xlink="http://www.w3.org/1999/xlink" preserveAspectRatio="xMidYMid" width="150" height="150" viewBox="0 0 150 150">
  <defs>
    <style>

      .cls-3 {
        fill: #00688f;
      }

      .cls-4 {
        fill: #ffffff;
      }
    </style>
  </defs>
  <g id="pressed">
    <circle id="circle-1" class="cls-3" cx="75" cy="75" r="75"/>
    <path d="M115.611,82.068 C115.249,82.663 114.836,83.236 114.321,83.751 C114.321,83.751 113.723,84.350 113.723,84.350 C113.284,84.790 112.809,85.173 112.309,85.501 C112.309,85.501 90.700,105.585 90.700,105.585 C87.232,108.808 81.610,108.808 78.141,105.585 C78.141,105.585 77.543,105.029 77.543,105.029 C74.076,101.806 74.076,96.580 77.543,93.357 C77.543,93.357 87.636,83.977 87.636,83.977 C87.636,83.977 40.110,83.977 40.110,83.977 C37.847,83.977 36.013,82.228 36.013,80.071 C36.013,80.071 36.013,69.876 36.013,69.876 C36.013,67.719 37.847,65.970 40.110,65.970 C40.110,65.970 82.805,65.973 82.805,65.973 C82.805,65.973 77.543,60.706 77.543,60.706 C74.076,57.235 74.076,51.608 77.543,48.136 C77.543,48.136 78.141,47.538 78.141,47.538 C81.610,44.067 87.232,44.067 90.700,47.538 C90.700,47.538 114.321,71.181 114.321,71.181 C116.099,72.960 116.951,75.305 116.906,77.636 C116.938,79.175 116.499,80.710 115.611,82.068 Z" id="path-1" class="cls-4" fill-rule="evenodd"/>
  </g>
</svg>
