<svg xmlns="http://www.w3.org/2000/svg" xmlns:xlink="http://www.w3.org/1999/xlink" preserveAspectRatio="xMidYMid" width="152" height="152" viewBox="0 0 152 152">
  <defs>
    <style>

      .cls-3 {
        stroke: #38b42b;
        stroke-linecap: round;
        stroke-width: 2px;
        fill: none;
      }

      .cls-4 {
        stroke: #38b42b;
        stroke-width: 2px;
        fill: none;
      }
    </style>
  </defs>
  <g id="idle">
    <circle id="circle-1" class="cls-3" cx="76" cy="76" r="75"/>
    <path d="M125.867,109.614 C119.855,123.466 106.368,126.148 101.977,126.238 C100.688,126.264 80.584,127.739 52.276,100.957 C29.496,79.402 27.141,55.771 26.986,51.275 C26.835,46.896 28.316,35.872 43.617,27.391 C45.513,26.340 49.240,25.816 50.180,26.756 C50.597,27.174 62.873,47.809 63.192,48.494 C63.512,49.179 63.665,49.856 63.652,50.524 C63.632,51.478 62.928,52.685 61.537,54.145 C60.147,55.605 58.641,56.947 57.017,58.173 C55.393,59.399 53.887,60.693 52.499,62.057 C51.111,63.420 50.409,64.534 50.391,65.392 C50.438,67.619 52.102,75.564 65.768,87.503 C79.437,99.447 86.072,102.753 86.710,102.979 C87.351,103.204 87.884,103.311 88.314,103.302 C89.174,103.284 90.286,102.583 91.650,101.196 C93.014,99.808 97.634,93.560 99.094,92.169 C100.553,90.781 101.761,90.077 102.717,90.057 C103.385,90.044 104.061,90.196 104.746,90.516 C105.432,90.835 126.111,102.651 126.502,103.052 C127.566,104.142 126.728,107.630 125.867,109.614 " id="path-1" class="cls-4" fill-rule="evenodd"/>
  </g>
</svg>
