<svg xmlns="http://www.w3.org/2000/svg" xmlns:xlink="http://www.w3.org/1999/xlink" preserveAspectRatio="xMidYMid" width="150" height="150" viewBox="0 0 150 150">
  <defs>
    <style>

      .cls-3 {
        fill: #00688f;
      }

      .cls-4 {
        fill: #ffffff;
      }
    </style>
  </defs>
  <g id="pressed">
    <circle id="circle-1" class="cls-3" cx="75" cy="75" r="75"/>
    <path d="M121.364,83.040 C117.760,105.132 98.611,122.000 75.500,122.000 C49.819,122.000 29.000,101.181 29.000,75.500 C29.000,50.322 49.015,29.831 74.000,29.038 C74.000,29.038 74.000,32.032 74.000,32.032 C50.649,32.812 31.955,51.972 31.955,75.509 C31.955,99.541 51.440,119.023 75.476,119.023 C96.940,119.023 114.758,103.481 118.326,83.040 C118.326,83.040 104.035,83.040 104.035,83.040 C104.035,83.040 118.999,58.999 118.999,58.999 C118.999,58.999 137.000,83.040 137.000,83.040 C137.000,83.040 121.364,83.040 121.364,83.040 Z" id="path-1" class="cls-4" fill-rule="evenodd"/>
  </g>
</svg>
