<svg xmlns="http://www.w3.org/2000/svg" xmlns:xlink="http://www.w3.org/1999/xlink" preserveAspectRatio="xMidYMid" width="150" height="150" viewBox="0 0 150 150">
  <defs>
    <style>

      .cls-3 {
        fill: #38b42b;
      }

      .cls-4 {
        fill: #ffffff;
      }
    </style>
  </defs>
  <g id="pressed">
    <circle id="circle-1" class="cls-3" cx="75" cy="75" r="75"/>
    <path d="M75.000,81.000 C75.000,81.000 75.000,33.000 75.000,33.000 C75.000,33.000 123.000,33.000 123.000,33.000 C123.000,33.000 123.000,81.000 123.000,81.000 C123.000,81.000 75.000,81.000 75.000,81.000 ZM121.000,35.000 C121.000,35.000 77.000,35.000 77.000,35.000 C77.000,35.000 77.000,79.000 77.000,79.000 C77.000,79.000 121.000,79.000 121.000,79.000 C121.000,79.000 121.000,35.000 121.000,35.000 Z" id="path-1" class="cls-4" fill-rule="evenodd"/>
    <path d="M81.147,74.838 C81.286,75.063 82.000,75.000 82.000,75.000 C82.000,75.000 116.000,75.000 116.000,75.000 C116.498,75.000 116.764,74.434 116.837,74.009 C116.886,73.712 118.011,67.290 113.755,63.055 C111.721,61.031 108.827,60.005 105.156,60.005 C109.671,60.005 92.566,60.005 92.566,60.005 C92.566,60.005 86.001,61.031 83.968,63.055 C79.708,67.291 81.095,74.530 81.147,74.838 ZM107.955,47.983 C107.955,43.032 103.945,39.005 99.017,39.005 C94.090,39.005 90.019,43.226 90.019,48.160 C90.019,53.094 94.090,56.961 99.017,56.961 C103.945,56.961 107.955,52.933 107.955,47.983 Z" id="path-2" class="cls-4" fill-rule="evenodd"/>
    <path d="M124.867,108.614 C118.855,122.466 105.368,125.148 100.977,125.238 C99.688,125.264 79.584,126.739 51.277,99.957 C28.495,78.402 26.141,54.771 25.986,50.275 C25.835,45.896 27.315,34.872 42.616,26.391 C44.513,25.340 48.240,24.816 49.180,25.756 C49.597,26.174 61.872,46.809 62.192,47.494 C62.512,48.179 62.666,48.856 62.652,49.524 C62.632,50.478 61.928,51.685 60.537,53.145 C59.147,54.605 57.641,55.947 56.018,57.173 C54.393,58.399 52.887,59.693 51.499,61.057 C50.111,62.420 49.409,63.534 49.391,64.392 C49.438,66.619 51.101,74.564 64.768,86.503 C78.437,98.447 85.071,101.753 85.710,101.979 C86.351,102.204 86.884,102.311 87.314,102.302 C88.174,102.284 89.286,101.583 90.650,100.196 C92.014,98.808 96.634,92.560 98.093,91.169 C99.554,89.781 100.762,89.077 101.717,89.057 C102.385,89.044 103.061,89.196 103.746,89.516 C104.432,89.835 125.110,101.651 125.503,102.052 C126.566,103.142 125.728,106.630 124.867,108.614 " id="path-3" class="cls-4" fill-rule="evenodd"/>
  </g>
</svg>
