<svg xmlns="http://www.w3.org/2000/svg" xmlns:xlink="http://www.w3.org/1999/xlink" preserveAspectRatio="xMidYMid" width="152" height="152" viewBox="0 0 152 152">
  <defs>
    <style>

      .cls-3 {
        stroke: #979797;
        stroke-linecap: round;
        stroke-width: 2px;
        fill: none;
      }
    </style>
  </defs>
  <g id="idle">
    <circle id="circle-1" class="cls-3" cx="76" cy="76" r="75"/>
    <path d="M116.610,83.069 C116.249,83.665 115.835,84.236 115.321,84.751 C115.321,84.751 114.723,85.349 114.723,85.349 C114.284,85.789 113.809,86.172 113.309,86.501 C113.309,86.501 91.700,106.585 91.700,106.585 C88.232,109.808 82.610,109.808 79.141,106.585 C79.141,106.585 78.543,106.029 78.543,106.029 C75.076,102.806 75.076,97.580 78.543,94.357 C78.543,94.357 88.635,84.977 88.635,84.977 C88.635,84.977 41.110,84.977 41.110,84.977 C38.847,84.977 37.013,83.229 37.013,81.071 C37.013,81.071 37.013,70.876 37.013,70.876 C37.013,68.719 38.847,66.970 41.110,66.970 C41.110,66.970 83.805,66.973 83.805,66.973 C83.805,66.973 78.543,61.706 78.543,61.706 C75.076,58.235 75.076,52.607 78.543,49.136 C78.543,49.136 79.141,48.538 79.141,48.538 C82.610,45.067 88.232,45.067 91.700,48.538 C91.700,48.538 115.321,72.181 115.321,72.181 C117.099,73.960 117.951,76.305 117.906,78.636 C117.938,80.175 117.499,81.711 116.610,83.069 Z" id="path-1" class="cls-3" fill-rule="evenodd"/>
  </g>
</svg>
