<svg xmlns="http://www.w3.org/2000/svg" xmlns:xlink="http://www.w3.org/1999/xlink" preserveAspectRatio="xMidYMid" width="152" height="152" viewBox="0 0 152 152">
  <defs>
    <style>

      .cls-3 {
        stroke: #979797;
        stroke-linecap: round;
        stroke-width: 2px;
        fill: none;
      }

      .cls-4 {
        stroke: #979797;
        stroke-width: 2px;
        fill: none;
      }
    </style>
  </defs>
  <g id="idle">
    <circle id="circle-1" class="cls-3" cx="76" cy="76" r="75"/>
    <path d="M103.998,67.006 C103.998,67.006 103.998,76.007 103.998,76.007 C103.998,90.920 92.357,103.009 77.998,103.009 C63.639,103.009 51.998,90.920 51.998,76.007 C51.998,76.007 51.998,67.006 51.998,67.006 " id="path-1" class="cls-4" fill-rule="evenodd"/>
    <path d="M76.248,30.998 C76.248,30.998 79.748,30.998 79.748,30.998 C86.514,30.998 91.998,36.367 91.998,42.990 C91.998,42.990 91.998,81.005 91.998,81.005 C91.998,87.628 86.514,92.998 79.748,92.998 C79.748,92.998 76.248,92.998 76.248,92.998 C69.483,92.998 63.998,87.628 63.998,81.005 C63.998,81.005 63.998,42.990 63.998,42.990 C63.998,36.367 69.483,30.998 76.248,30.998 Z" id="path-2" class="cls-4" fill-rule="evenodd"/>
    <path d="M95.000,118.000 C95.000,118.000 79.000,118.000 79.000,118.000 C79.000,118.000 77.000,118.000 77.000,118.000 C77.000,118.000 61.000,118.000 61.000,118.000 C61.000,118.000 61.000,116.000 61.000,116.000 C61.000,116.000 77.000,116.000 77.000,116.000 C77.000,116.000 77.000,101.000 77.000,101.000 C77.000,101.000 79.000,101.000 79.000,101.000 C79.000,101.000 79.000,116.000 79.000,116.000 C79.000,116.000 95.000,116.000 95.000,116.000 C95.000,116.000 95.000,118.000 95.000,118.000 Z" id="path-3" class="cls-4" fill-rule="evenodd"/>
  </g>
</svg>
