<svg xmlns="http://www.w3.org/2000/svg" xmlns:xlink="http://www.w3.org/1999/xlink" preserveAspectRatio="xMidYMid" width="150" height="150" viewBox="0 0 150 150">
  <defs>
    <style>

      .cls-3 {
        fill: #00688f;
      }

      .cls-5 {
        fill: #ffffff;
      }

      .cls-6 {
        stroke: #ffffff;
        stroke-linecap: round;
        stroke-linejoin: round;
        stroke-width: 2px;
        fill: none;
      }
    </style>
  </defs>
  <g id="pressed">
    <circle id="circle-1" class="cls-3" cx="75" cy="75" r="75"/>
    <g id="headphone">
      <path d="M112.760,119.000 C112.147,119.000 107.532,119.000 106.919,119.000 C104.974,119.000 104.001,118.091 104.001,116.272 C104.001,110.395 104.001,96.673 104.001,91.730 C104.001,89.912 104.974,89.003 106.919,89.003 C107.362,89.003 112.317,89.003 112.760,89.003 C113.538,89.003 118.013,91.306 118.013,103.907 C118.013,116.756 113.538,119.000 112.760,119.000 ZM44.080,119.000 C43.467,119.000 38.853,119.000 38.240,119.000 C37.462,119.000 32.987,116.756 32.987,103.907 C32.987,91.306 37.462,89.003 38.240,89.003 C38.682,89.003 43.638,89.003 44.080,89.003 C46.025,89.003 46.999,89.912 46.999,91.730 C46.999,96.673 46.999,110.395 46.999,116.272 C46.999,118.091 46.025,119.000 44.080,119.000 Z" id="path-1" class="cls-5" fill-rule="evenodd"/>
      <path d="M29.000,105.296 C29.000,105.296 29.000,80.087 29.000,80.087 C29.000,53.845 50.253,33.004 76.500,33.004 C102.747,33.004 124.000,53.845 124.000,80.087 C124.000,80.087 124.000,105.296 124.000,105.296 " id="path-2" class="cls-6" fill-rule="evenodd"/>
    </g>
    <path d="M89.874,95.321 C89.874,95.321 72.966,112.871 72.966,112.871 C72.966,112.871 72.966,90.605 72.966,90.605 C72.966,90.605 65.183,98.545 65.183,98.545 C65.183,98.545 62.102,95.316 62.102,95.316 C62.102,95.316 72.908,83.994 72.908,83.994 C72.908,83.994 62.102,72.672 62.102,72.672 C62.102,72.672 65.183,69.444 65.183,69.444 C65.183,69.444 72.966,77.385 72.966,77.385 C72.966,77.385 72.966,55.120 72.966,55.120 C72.966,55.120 89.874,72.667 89.874,72.667 C89.874,72.667 79.400,83.994 79.400,83.994 C79.400,83.994 89.874,95.321 89.874,95.321 ZM77.011,103.130 C77.011,103.130 84.303,95.316 84.303,95.316 C84.303,95.316 77.011,87.822 77.011,87.822 C77.011,87.822 77.011,103.130 77.011,103.130 ZM84.303,72.672 C84.303,72.672 77.011,65.557 77.011,65.557 C77.011,65.557 77.011,80.168 77.011,80.168 C77.011,80.168 84.303,72.672 84.303,72.672 Z" id="path-3" class="cls-5" fill-rule="evenodd"/>
  </g>
</svg>
