<svg xmlns="http://www.w3.org/2000/svg" xmlns:xlink="http://www.w3.org/1999/xlink" preserveAspectRatio="xMidYMid" width="150" height="150" viewBox="0 0 150 150">
  <defs>
    <style>

      .cls-3 {
        fill: #00688f;
      }

      .cls-4 {
        fill: #ffffff;
      }
    </style>
  </defs>
  <g id="hold-pressed">
    <circle id="circle-1" class="cls-3" cx="75" cy="75" r="75"/>
    <path d="M99.000,111.000 C99.000,111.000 90.000,111.000 90.000,111.000 C86.686,111.000 84.000,108.314 84.000,105.000 C84.000,105.000 84.000,45.000 84.000,45.000 C84.000,41.686 86.686,39.000 90.000,39.000 C90.000,39.000 99.000,39.000 99.000,39.000 C102.313,39.000 105.000,41.686 105.000,45.000 C105.000,45.000 105.000,105.000 105.000,105.000 C105.000,108.314 102.313,111.000 99.000,111.000 ZM60.000,111.000 C60.000,111.000 51.000,111.000 51.000,111.000 C47.686,111.000 45.000,108.314 45.000,105.000 C45.000,105.000 45.000,45.000 45.000,45.000 C45.000,41.686 47.686,39.000 51.000,39.000 C51.000,39.000 60.000,39.000 60.000,39.000 C63.314,39.000 66.000,41.686 66.000,45.000 C66.000,45.000 66.000,105.000 66.000,105.000 C66.000,108.314 63.314,111.000 60.000,111.000 Z" id="path-1" class="cls-4" fill-rule="evenodd"/>
  </g>
</svg>
