<svg xmlns="http://www.w3.org/2000/svg" width="167" height="28" viewBox="0 0 167 28">
  <defs>
    <style>
      .cls-1 {
        fill: #00688f;
        fill-rule: evenodd;
      }
    </style>
  </defs>
  <path class="cls-1" d="M411.516,190.96c-1.085,1.855-3.633,2.524-6.971,2.088a17.7,17.7,0,0,0,.758-2.158c3.166,0.61,5.565.165,6.5-1.434a3,3,0,0,0,.207-0.442,3.764,3.764,0,0,1-.5,1.946m-9.869-15.575c-1.04-3.112-2.633-4.885-4.553-4.885a2.6,2.6,0,0,0-.491.045,3.91,3.91,0,0,1,1.959-.549c2.216,0,4.081,1.775,5.366,4.943a3.8,3.8,0,0,1,.181.588c-0.818.028-1.435,0.08-2.382,0.191a1.161,1.161,0,0,0-.08-0.333m3.621,5.377A13.354,13.354,0,0,1,405.6,184a25.453,25.453,0,0,1-.912,6.892,18.214,18.214,0,0,1-.765,2.175,9.909,9.909,0,0,1-2.82,3.99,4.139,4.139,0,0,1-2.544.944,3.808,3.808,0,0,1-.64-0.058c-2.854-.509-5.216-4.409-6.065-9.656,0.944,4.258,2.933,7.19,5.237,7.19a2.733,2.733,0,0,0,.828-0.128,5.618,5.618,0,0,0,2.972-2.973l0.212-.428a14.948,14.948,0,0,0,.732-1.871,23.723,23.723,0,0,0,1.015-7.086,16.449,16.449,0,0,0-.226-2.231l0.842-.044a10.111,10.111,0,0,1,1.8.048m-4.5,8.847a5.734,5.734,0,0,1,.544.261,15.008,15.008,0,0,1-.671,1.687c-0.071.148-.141,0.29-0.214,0.428l-0.077.15a27.268,27.268,0,0,1-5.006-2.21,26.309,26.309,0,0,1-5.4-4.02c-0.514-.554-1-1.094-1.432-1.633-2.14-2.688-2.94-5.388-1.832-7.275,1.588-2.714,6.614-2.91,12.11-.779l0.11,0.043-0.121-.041c-4.288-1.419-7.975-1.22-9.148.786-0.762,1.3-.33,3.121.992,5.043a15.4,15.4,0,0,0,1.588,1.924,23.4,23.4,0,0,0,5.389,4.111s2.191,1.138,3.165,1.525M398.9,176.261l-0.11-.043Zm-13.672,13.17c-0.628-1.7.171-3.727,1.927-5.65,0.21,0.307.385,0.631,0.631,0.942,0.2,0.249.464,0.486,0.684,0.736-1.868,1.709-2.719,3.412-2.163,4.916a2.524,2.524,0,0,0,.305.337,3.506,3.506,0,0,1-1.384-1.281m26.86-9.84a3.515,3.515,0,0,1-.658,2.628,5.391,5.391,0,0,1-1.121.941,2.588,2.588,0,0,0-.1-1.376c-0.5-1.349-2.289-2.371-4.143-2.466a16.432,16.432,0,0,0-3.288-.092,18.974,18.974,0,0,0-6.415,1.363,35.306,35.306,0,0,0-4.394,2,15.865,15.865,0,0,1-1.308-2.017,27.675,27.675,0,0,1,5.474-2.707,23.905,23.905,0,0,1,6.7-1.488,14.763,14.763,0,0,1,3.483.1c2.735,0.407,5.046,1.137,5.774,3.114" transform="translate(-385 -170)"/>
  <path id="Aeonix_Touch" data-name="Aeonix Touch" class="cls-1" d="M429.46,187.147l1.727,5.088h2.23L427.9,176.059h-2.518l-5.491,16.176h2.158l1.678-5.088h5.731Zm-5.3-1.632,1.583-4.68c0.311-.984.575-1.968,0.815-2.928h0.048c0.24,0.936.479,1.9,0.839,2.952l1.583,4.656h-4.868Zm20.6,1.3a7.966,7.966,0,0,0,.072-0.984c0-2.136-1.008-5.472-4.8-5.472-3.381,0-5.444,2.76-5.444,6.264s2.135,5.856,5.707,5.856a9.392,9.392,0,0,0,3.861-.72l-0.36-1.512a7.622,7.622,0,0,1-3.213.6,3.719,3.719,0,0,1-3.98-4.032h8.153ZM436.63,185.3c0.167-1.464,1.1-3.432,3.237-3.432,2.374,0,2.949,2.088,2.925,3.432H436.63Zm15.729-4.944c-3.213,0-5.755,2.28-5.755,6.168,0,3.672,2.422,5.976,5.563,5.976,2.806,0,5.779-1.872,5.779-6.168C457.946,182.779,455.692,180.355,452.359,180.355Zm-0.048,1.584c2.494,0,3.477,2.5,3.477,4.464,0,2.616-1.51,4.512-3.525,4.512-2.062,0-3.525-1.92-3.525-4.464C448.738,184.243,449.817,181.939,452.311,181.939Zm8.3,10.3h2.111v-6.984a3.066,3.066,0,0,1,.143-0.984,3,3,0,0,1,2.83-2.16c1.99,0,2.686,1.56,2.686,3.432v6.7h2.11V185.3c0-3.984-2.494-4.944-4.1-4.944a4.266,4.266,0,0,0-3.836,2.184H462.5l-0.12-1.92h-1.871c0.072,0.96.1,1.944,0.1,3.144v8.472Zm15.418,0V180.619h-2.11v11.616h2.11Zm-1.055-16.2a1.287,1.287,0,0,0-1.319,1.321A1.307,1.307,0,1,0,474.97,176.034Zm3.189,4.585,3.933,5.688-4.125,5.928h2.326l1.679-2.616c0.431-.7.839-1.32,1.223-2.016h0.048c0.407,0.7.791,1.344,1.247,2.016l1.7,2.616h2.4l-4.076-6,3.956-5.616h-2.278l-1.631,2.472c-0.383.624-.767,1.224-1.151,1.92h-0.071c-0.384-.648-0.744-1.248-1.175-1.9l-1.655-2.5h-2.35Zm19.71,11.616h2.11v-14.4h4.94v-1.776H492.954v1.776h4.915v14.4Zm11.989-11.88c-3.213,0-5.755,2.28-5.755,6.168,0,3.672,2.422,5.976,5.564,5.976,2.805,0,5.779-1.872,5.779-6.168C515.446,182.779,513.191,180.355,509.858,180.355Zm-0.048,1.584c2.494,0,3.477,2.5,3.477,4.464,0,2.616-1.51,4.512-3.525,4.512-2.062,0-3.525-1.92-3.525-4.464C506.237,184.243,507.317,181.939,509.81,181.939Zm18.008-1.32h-2.11v7.128a3.089,3.089,0,0,1-.192,1.08,3.051,3.051,0,0,1-2.782,1.92c-1.918,0-2.589-1.488-2.589-3.7v-6.432h-2.11v6.792c0,4.08,2.182,5.088,4,5.088a4.368,4.368,0,0,0,3.837-2.16h0.048l0.12,1.9h1.87c-0.072-.912-0.1-1.968-0.1-3.168v-8.448Zm11.413,9.6a5.985,5.985,0,0,1-2.589.576c-2.3,0-4.029-1.656-4.029-4.344,0-2.424,1.439-4.392,4.1-4.392a4.892,4.892,0,0,1,2.446.552l0.479-1.632a7.044,7.044,0,0,0-2.925-.6,5.9,5.9,0,0,0-6.235,6.168c0,3.552,2.278,5.928,5.779,5.928a7.763,7.763,0,0,0,3.333-.672Zm2.829,2.016h2.111v-7.008a2.557,2.557,0,0,1,.144-1.008,3.031,3.031,0,0,1,2.829-2.112c1.99,0,2.686,1.584,2.686,3.456v6.672H552v-6.912c0-4.008-2.556-4.968-4.115-4.968a4.342,4.342,0,0,0-2.158.6,3.914,3.914,0,0,0-1.51,1.488h-0.048v-7.249H542.06v17.041Z" transform="translate(-385 -170)"/>
</svg>
