<svg xmlns="http://www.w3.org/2000/svg" xmlns:xlink="http://www.w3.org/1999/xlink" preserveAspectRatio="xMidYMid" width="120" height="120" viewBox="0 0 120 120">
  <defs>
    <style>

      .cls-3 {
        fill: #d4d6d9;
      }

      .cls-4 {
        fill: #ffffff;
      }
    </style>
  </defs>
  <g id="120x120">
    <circle id="circle-1" class="cls-3" cx="60" cy="60" r="60"/>
    <path d="M102.207,82.925 C102.126,83.535 101.661,83.989 101.113,83.989 C101.113,83.989 85.959,83.989 85.959,83.989 C85.959,83.989 85.968,82.730 85.968,82.730 C85.968,82.730 86.951,71.261 81.576,64.262 C81.410,64.047 81.226,63.859 81.052,63.657 C83.867,63.657 87.638,63.657 89.354,63.657 C93.394,63.657 96.578,65.132 98.816,68.041 C103.500,74.130 102.261,82.497 102.207,82.925 ZM83.527,60.587 C78.080,60.587 73.582,56.324 73.582,50.885 C73.582,45.446 78.080,40.794 83.527,40.794 C88.973,40.794 93.404,45.232 93.404,50.689 C93.404,56.147 88.973,60.587 83.527,60.587 ZM59.854,55.099 C52.914,55.099 47.182,49.692 47.182,42.795 C47.182,35.898 52.914,29.997 59.854,29.997 C66.794,29.997 72.440,35.626 72.440,42.547 C72.440,49.468 66.794,55.099 59.854,55.099 ZM34.872,60.587 C29.426,60.587 24.994,56.147 24.994,50.689 C24.994,45.232 29.426,40.794 34.872,40.794 C40.318,40.794 44.816,45.446 44.816,50.885 C44.816,56.324 40.318,60.587 34.872,60.587 ZM37.347,63.657 C37.172,63.859 36.989,64.047 36.823,64.262 C31.448,71.261 32.431,82.730 32.431,82.730 C32.431,82.730 32.439,83.989 32.439,83.989 C32.439,83.989 17.285,83.989 17.285,83.989 C16.737,83.989 16.272,83.535 16.192,82.925 C16.137,82.497 14.899,74.130 19.583,68.041 C21.821,65.132 25.005,63.657 29.045,63.657 C30.761,63.657 34.531,63.657 37.347,63.657 ZM51.906,58.871 C51.906,58.871 62.846,58.871 66.446,58.871 C71.441,58.871 75.377,60.982 78.144,64.534 C83.936,71.969 82.404,82.185 82.337,82.707 C82.237,83.452 81.663,84.007 80.985,84.007 C80.985,84.007 37.363,84.007 37.363,84.007 C36.685,84.007 36.108,83.453 36.011,82.707 C35.944,82.187 34.412,71.970 40.207,64.534 C42.973,60.982 51.906,58.871 51.906,58.871 Z" id="path-1" class="cls-4" fill-rule="evenodd"/>
  </g>
</svg>
