<svg xmlns="http://www.w3.org/2000/svg" xmlns:xlink="http://www.w3.org/1999/xlink" preserveAspectRatio="xMidYMid" width="120" height="120" viewBox="0 0 120 120">
  <defs>
    <style>

      .cls-3 {
        fill: #d4d6d9;
      }

      .cls-4 {
        fill: #ffffff;
      }
    </style>
  </defs>
  <g id="120x120">
    <circle id="circle-1" class="cls-3" cx="60" cy="60" r="60"/>
    <path d="M36.010,82.707 C36.108,83.453 36.685,84.007 37.362,84.007 C37.362,84.007 80.985,84.007 80.985,84.007 C81.662,84.007 82.237,83.452 82.337,82.707 C82.404,82.185 83.935,71.968 78.144,64.534 C75.377,60.982 71.440,58.871 66.445,58.871 C72.588,58.871 51.906,58.871 51.906,58.871 C51.906,58.871 42.973,60.982 40.207,64.534 C34.412,71.970 35.943,82.187 36.010,82.707 ZM72.440,42.547 C72.440,35.626 66.794,29.997 59.853,29.997 C52.913,29.997 47.181,35.898 47.181,42.795 C47.181,49.692 52.913,55.099 59.853,55.099 C66.794,55.099 72.440,49.468 72.440,42.547 Z" id="path-1" class="cls-4" fill-rule="evenodd"/>
  </g>
</svg>
