<svg xmlns="http://www.w3.org/2000/svg" xmlns:xlink="http://www.w3.org/1999/xlink" preserveAspectRatio="xMidYMid" width="60" height="61" viewBox="0 0 60 61">
  <defs>
    <style>

      .cls-2 {
        fill: #692525;
      }
    </style>
  </defs>
  <path d="M33.877,29.988 C33.877,29.988 59.175,55.298 59.175,55.298 C60.250,56.373 60.250,58.117 59.175,59.192 C58.100,60.267 56.358,60.267 55.283,59.192 C55.283,59.192 29.985,33.882 29.985,33.882 C29.985,33.882 4.688,59.192 4.688,59.192 C3.613,60.267 1.870,60.267 0.796,59.192 C-0.279,58.117 -0.279,56.373 0.796,55.298 C0.796,55.298 26.093,29.988 26.093,29.988 C26.093,29.988 0.796,4.678 0.796,4.678 C-0.279,3.603 -0.279,1.860 0.796,0.785 C1.870,-0.291 3.613,-0.291 4.688,0.785 C4.688,0.785 29.985,26.094 29.985,26.094 C29.985,26.094 55.283,0.785 55.283,0.785 C56.358,-0.291 58.100,-0.291 59.175,0.785 C60.250,1.860 60.250,3.603 59.175,4.678 C59.175,4.678 33.877,29.988 33.877,29.988 Z" id="path-1" class="cls-2" fill-rule="evenodd"/>
</svg>
