<svg xmlns="http://www.w3.org/2000/svg" xmlns:xlink="http://www.w3.org/1999/xlink" preserveAspectRatio="xMidYMid" width="60" height="60" viewBox="0 0 60 60">
  <defs>
    <style>

      .cls-2 {
        fill: #ffffff;
      }
    </style>
  </defs>
  <path d="M33.877,29.973 C33.877,29.973 59.175,55.269 59.175,55.269 C60.250,56.344 60.250,58.087 59.175,59.161 C58.100,60.236 56.358,60.236 55.283,59.161 C55.283,59.161 29.985,33.864 29.985,33.864 C29.985,33.864 4.688,59.161 4.688,59.161 C3.613,60.236 1.870,60.236 0.796,59.161 C-0.279,58.087 -0.279,56.344 0.796,55.269 C0.796,55.269 26.093,29.973 26.093,29.973 C26.093,29.973 0.796,4.676 0.796,4.676 C-0.279,3.601 -0.279,1.859 0.796,0.784 C1.870,-0.290 3.613,-0.290 4.688,0.784 C4.688,0.784 29.985,26.081 29.985,26.081 C29.985,26.081 55.283,0.784 55.283,0.784 C56.358,-0.290 58.100,-0.290 59.175,0.784 C60.250,1.859 60.250,3.601 59.175,4.676 C59.175,4.676 33.877,29.973 33.877,29.973 Z" id="path-1" class="cls-2" fill-rule="evenodd"/>
</svg>
