<svg xmlns="http://www.w3.org/2000/svg" xmlns:xlink="http://www.w3.org/1999/xlink" preserveAspectRatio="xMidYMid" width="48" height="48" viewBox="0 0 48 48">
  <defs>
    <style>

      .cls-2 {
        fill: #a21717;
      }
    </style>
  </defs>
  <path d="M26.734,23.906 C26.734,23.906 47.241,44.412 47.241,44.412 C48.022,45.193 48.022,46.460 47.241,47.241 C46.459,48.022 45.193,48.022 44.412,47.241 C44.412,47.241 23.906,26.735 23.906,26.735 C23.906,26.735 3.400,47.241 3.400,47.241 C2.619,48.022 1.352,48.022 0.572,47.241 C-0.210,46.460 -0.210,45.193 0.572,44.412 C0.572,44.412 21.078,23.906 21.078,23.906 C21.078,23.906 0.572,3.400 0.572,3.400 C-0.210,2.619 -0.210,1.353 0.572,0.572 C1.352,-0.209 2.619,-0.209 3.400,0.572 C3.400,0.572 23.906,21.078 23.906,21.078 C23.906,21.078 44.412,0.572 44.412,0.572 C45.193,-0.209 46.459,-0.209 47.241,0.572 C48.022,1.353 48.022,2.619 47.241,3.400 C47.241,3.400 26.734,23.906 26.734,23.906 Z" id="path-1" class="cls-2" fill-rule="evenodd"/>
</svg>
