<svg xmlns="http://www.w3.org/2000/svg" xmlns:xlink="http://www.w3.org/1999/xlink" preserveAspectRatio="xMidYMid" width="56" height="44" viewBox="0 0 56 44">
  <defs>
    <style>

      .cls-2 {
        fill: #38b42b;
      }
    </style>
  </defs>
  <path d="M54.942,6.754 C54.942,6.754 19.831,42.288 19.831,42.288 C19.831,42.288 19.831,42.288 19.831,42.288 C19.831,42.288 19.204,42.923 19.204,42.923 C17.819,44.325 15.573,44.325 14.188,42.923 C14.188,42.923 13.561,42.288 13.561,42.288 C13.561,42.288 13.561,42.288 13.561,42.288 C13.561,42.288 1.021,29.597 1.021,29.597 C-0.364,28.196 -0.364,25.923 1.021,24.521 C1.021,24.521 1.649,23.886 1.649,23.886 C3.034,22.485 5.279,22.485 6.664,23.886 C6.664,23.886 16.696,34.039 16.696,34.039 C16.696,34.039 49.299,1.043 49.299,1.043 C50.684,-0.359 52.930,-0.359 54.315,1.043 C54.315,1.043 54.942,1.677 54.942,1.677 C56.327,3.079 56.327,5.352 54.942,6.754 Z" id="path-1" class="cls-2" fill-rule="evenodd"/>
</svg>
