<svg xmlns="http://www.w3.org/2000/svg" xmlns:xlink="http://www.w3.org/1999/xlink" preserveAspectRatio="xMidYMid" width="53" height="46" viewBox="0 0 53 46">
  <defs>
    <style>

      .cls-3 {
        stroke: #4a4a4a;
        stroke-linecap: round;
        stroke-width: 2px;
        fill: none;
      }

      .cls-4 {
        fill: #003a4f;
      }
    </style>
  </defs>
  <g id="vchecksvg">
    <path d="M3.000,1.000 C3.000,1.000 42.937,1.000 42.937,1.000 C44.042,1.000 44.937,1.895 44.937,3.000 C44.937,3.000 44.937,43.000 44.937,43.000 C44.937,44.104 44.042,45.000 42.937,45.000 C42.937,45.000 3.000,45.000 3.000,45.000 C1.895,45.000 1.000,44.104 1.000,43.000 C1.000,43.000 1.000,3.000 1.000,3.000 C1.000,1.895 1.895,1.000 3.000,1.000 Z" id="path-1" class="cls-3" fill-rule="evenodd"/>
    <path d="M50.935,11.036 C50.935,11.036 27.221,34.780 27.221,34.780 C27.221,34.781 27.220,34.782 27.219,34.782 C27.219,34.782 24.957,37.048 24.957,37.048 C24.165,37.840 23.064,38.127 22.044,37.917 C21.402,37.799 20.788,37.494 20.292,36.997 C20.292,36.997 17.935,34.637 17.935,34.637 C17.787,34.489 17.661,34.328 17.547,34.161 C17.547,34.161 9.115,25.719 9.115,25.719 C7.865,24.467 7.865,22.438 9.115,21.187 C9.115,21.187 11.378,18.921 11.378,18.921 C12.628,17.669 14.654,17.669 15.904,18.921 C15.904,18.921 22.411,25.436 22.411,25.436 C22.411,25.436 43.864,3.956 43.864,3.956 C45.166,2.652 47.276,2.652 48.578,3.956 C48.578,3.956 50.935,6.316 50.935,6.316 C52.237,7.619 52.237,9.733 50.935,11.036 Z" id="path-2" class="cls-4" fill-rule="evenodd"/>
  </g>
</svg>
